<?xml version="1.0" encoding="UTF-8" standalone="no" ?>
<!DOCTYPE sesx>
<sesx version="1.9">

  <session appBuild="23.0.0.54" appVersion="23.0" audioChannelType="stereo" bitDepth="32" duration="16786392" sampleRate="48000">
    <tracks>
      <audioTrack automationLaneOpenState="false" id="10001" index="1" select="true" visible="true">
        <trackParameters trackHeight="134" trackHue="160" trackMinimized="false">
          <name>Track 1</name>
        </trackParameters>
        <trackAudioParameters audioChannelType="stereo" automationMode="1" monitoring="false" recordArmed="false" solo="false" soloSafe="false">
          <trackOutput outputID="10000" type="trackID"/>
          <trackInput inputID="1"/>
          <component componentGuid="9bc021d0-225c-4526-932d-c01986dda08f" componentID="Audition.Fader" id="trackFader" name="volume" powered="true">
            <parameter index="0" name="volume" parameterValue="1"/>
            <parameter index="1" name="static gain" parameterValue="1"/>
          </component>
          <component componentGuid="f52739e8-f2e4-46f9-bf85-87ee3bd26741" componentID="Audition.Mute" id="trackMute" name="Mute" powered="true">
            <parameter index="0" parameterValue="0"/>
            <parameter index="1" name="mute" parameterValue="0"/>
          </component>
          <component componentGuid="bb72f9d8-7f81-485b-82e2-7d771b8f3912" componentID="Audition.StereoPanner" id="trackPan" name="StereoPanner" powered="true">
            <parameter index="0" name="Pan" parameterValue="0"/>
          </component>
          <component componentGuid="658114cc-9624-4865-aea9-63412734976e" componentID="Audition.EQ" id="trackEQ" name="EQ" powered="false">
            <parameter index="0" name="Low Shelf Frequency" parameterValue="0.000834028352983295917510986328125"/>
            <parameter index="1" name="Low Shelf Gain" parameterValue="0.5"/>
            <parameter index="2" name="High Shelf Frequency" parameterValue="0.74979150295257568359375"/>
            <parameter index="3" name="High Shelf Gain" parameterValue="0.5"/>
            <parameter index="4" name="EQ Band 1 Center Frequency" parameterValue="0.00125104258768260478973388671875"/>
            <parameter index="5" name="EQ Band 1 Q" parameterValue="0.000199989997781813144683837890625"/>
            <parameter index="6" name="EQ Band 1 Gain" parameterValue="0.5"/>
            <parameter index="7" name="EQ Band 1 Enable" parameterValue="1"/>
            <parameter index="8" name="EQ Band 2 Center Frequency" parameterValue="0.0075062550604343414306640625"/>
            <parameter index="9" name="EQ Band 2 Q" parameterValue="0.000199989997781813144683837890625"/>
            <parameter index="10" name="EQ Band 2 Gain" parameterValue="0.5"/>
            <parameter index="11" name="EQ Band 2 Enable" parameterValue="1"/>
            <parameter index="12" name="EQ Band 3 Center Frequency" parameterValue="0.0325271077454090118408203125"/>
            <parameter index="13" name="EQ Band 3 Q" parameterValue="0.000199989997781813144683837890625"/>
            <parameter index="14" name="EQ Band 3 Gain" parameterValue="0.5"/>
            <parameter index="15" name="EQ Band 3 Enable" parameterValue="1"/>
            <parameter index="16" name="EQ Band 4 Center Frequency" parameterValue="0.13261051476001739501953125"/>
            <parameter index="17" name="EQ Band 4 Q" parameterValue="0.000199989997781813144683837890625"/>
            <parameter index="18" name="EQ Band 4 Gain" parameterValue="0.5"/>
            <parameter index="19" name="EQ Band 4 Enable" parameterValue="1"/>
            <parameter index="20" name="EQ Band 5 Center Frequency" parameterValue="0.532944142818450927734375"/>
            <parameter index="21" name="EQ Band 5 Q" parameterValue="0.000199989997781813144683837890625"/>
            <parameter index="22" name="EQ Band 5 Gain" parameterValue="0.5"/>
            <parameter index="23" name="EQ Band 5 Enable" parameterValue="1"/>
            <parameter index="24" name="Gain" parameterValue="0.666666686534881591796875"/>
            <parameter index="25" name="ConstantQ" parameterValue="1"/>
            <parameter index="26" name="Low Shelf Filter Order" parameterValue="0"/>
            <parameter index="27" name="High Shelf Filter Order" parameterValue="0"/>
            <parameter index="28" name="Ultra-Quiet Mode" parameterValue="0"/>
            <parameter index="29" name="Low Shelf Enable" parameterValue="1"/>
            <parameter index="30" name="High Shelf Enable" parameterValue="1"/>
            <parameter index="31" name="Original Sample Rate" parameterValue="0.25"/>
            <parameter index="32" name="EQ Band 1 Bandwidth" parameterValue="0.002499990165233612060546875"/>
            <parameter index="33" name="EQ Band 2 Bandwidth" parameterValue="0.0099999904632568359375"/>
            <parameter index="34" name="EQ Band 3 Bandwidth" parameterValue="0.0399999916553497314453125"/>
            <parameter index="35" name="EQ Band 4 Bandwidth" parameterValue="0.15999998152256011962890625"/>
            <parameter index="36" name="EQ Band 5 Bandwidth" parameterValue="0.63999998569488525390625"/>
            <parameter index="37" name="High-Pass Filter Enable" parameterValue="0"/>
            <parameter index="38" name="High-Pass Cutoff Frequency" parameterValue="0"/>
            <parameter index="39" name="High-Pass Slope" parameterValue="0.4000000059604644775390625"/>
            <parameter index="40" name="Low-Pass Filter Enable" parameterValue="0"/>
            <parameter index="41" name="Low-Pass Cutoff Frequency" parameterValue="0.833194315433502197265625"/>
            <parameter index="42" name="Low-Pass Slope" parameterValue="0.4000000059604644775390625"/>
            <parameter index="43" name="Bypass" parameterValue="0"/>
            <parameter index="44" name="LowGraphRange" parameterValue="1"/>
          </component>
        </trackAudioParameters>
        <editParameter parameterIndex="0" slotIndex="4294967280"/>
        <audioClip clipAutoCrossfade="true" crossFadeHeadClipID="-1" crossFadeTailClipID="-1" endPoint="240000" fileID="0" hue="-1" id="0" lockedInTime="false" looped="false" name="Laurent Garnier - Crispy Bacon" offline="false" select="false" sourceInPoint="0" sourceOutPoint="240000" startPoint="0" zOrder="0">
          <component componentGuid="7ad34c80-b878-49a2-9984-a085be0e3d3a" componentID="Audition.Fader" id="clipGain" name="volume" powered="true">
            <parameter index="0" name="volume" parameterValue="1"/>
            <parameter index="1" name="static gain" parameterValue="1"/>
          </component>
          <component componentGuid="6749af06-a55b-47ff-a1d9-ad4b558f7592" componentID="Audition.Mute" id="clipMute" name="Mute" powered="true">
            <parameter index="0" parameterValue="0"/>
            <parameter index="1" name="mute" parameterValue="0"/>
          </component>
          <component componentGuid="036eb6e3-cc54-40ed-bdaa-1dd7357e0053" componentID="Audition.StereoPanner" id="clipPan" name="StereoPanner" powered="true">
            <parameter index="0" name="Pan" parameterValue="0"/>
          </component>
          <fadeIn crossFadeLinkType="linkedAsymmetric" endPoint="0" shape="19" startPoint="0" type="log"/>
          <fadeOut crossFadeLinkType="linkedAsymmetric" endPoint="240000" shape="19" startPoint="240000" type="log"/>
          <editParameter parameterIndex="0" slotIndex="4294967280"/>
          <editParameter parameterIndex="0" slotIndex="4294967281"/>
          <channelMap>
            <channel index="0" sourceIndex="0"/>
            <channel index="1" sourceIndex="1"/>
          </channelMap>
        </audioClip>
        <audioClip clipAutoCrossfade="true" crossFadeHeadClipID="-1" crossFadeTailClipID="-1" endPoint="480000" fileID="0" hue="-1" id="1" lockedInTime="false" looped="false" name="Laurent Garnier - Crispy Bacon" offline="false" select="false" sourceInPoint="240000" sourceOutPoint="480000" startPoint="240000" zOrder="1">
          <component componentGuid="912e417a-3fcc-4c88-af5c-7acdbf840f49" componentID="Audition.Fader" id="clipGain" name="volume" powered="true">
            <parameter index="0" name="volume" parameterValue="1"/>
            <parameter index="1" name="static gain" parameterValue="1"/>
          </component>
          <component componentGuid="7f6e92c1-81ff-4950-8bea-8ec9f3e31609" componentID="Audition.Mute" id="clipMute" name="Mute" powered="true">
            <parameter index="0" parameterValue="0"/>
            <parameter index="1" name="mute" parameterValue="0"/>
          </component>
          <component componentGuid="9d32d251-3758-433e-93d1-f10e0297c692" componentID="Audition.StereoPanner" id="clipPan" name="StereoPanner" powered="true">
            <parameter index="0" name="Pan" parameterValue="0"/>
          </component>
          <fadeIn crossFadeLinkType="linkedAsymmetric" endPoint="0" shape="19" startPoint="0" type="log"/>
          <fadeOut crossFadeLinkType="linkedAsymmetric" endPoint="240000" shape="19" startPoint="240000" type="log"/>
          <editParameter parameterIndex="0" slotIndex="4294967280"/>
          <editParameter parameterIndex="0" slotIndex="4294967281"/>
          <channelMap>
            <channel index="0" sourceIndex="0"/>
            <channel index="1" sourceIndex="1"/>
          </channelMap>
        </audioClip>
        <audioClip clipAutoCrossfade="true" crossFadeHeadClipID="-1" crossFadeTailClipID="-1" endPoint="720000" fileID="0" hue="-1" id="2" lockedInTime="false" looped="false" name="Laurent Garnier - Crispy Bacon" offline="false" select="false" sourceInPoint="480000" sourceOutPoint="720000" startPoint="480000" zOrder="2">
          <component componentGuid="5efc720e-d79d-4479-96dc-fda9c5962eec" componentID="Audition.Fader" id="clipGain" name="volume" powered="true">
            <parameter index="0" name="volume" parameterValue="1"/>
            <parameter index="1" name="static gain" parameterValue="1"/>
          </component>
          <component componentGuid="a86d462c-fc52-48b0-bed5-60cd3b60ccca" componentID="Audition.Mute" id="clipMute" name="Mute" powered="true">
            <parameter index="0" parameterValue="0"/>
            <parameter index="1" name="mute" parameterValue="0"/>
          </component>
          <component componentGuid="0b3f7474-a761-4835-9adb-3bdb0c0ffeef" componentID="Audition.StereoPanner" id="clipPan" name="StereoPanner" powered="true">
            <parameter index="0" name="Pan" parameterValue="0"/>
          </component>
          <fadeIn crossFadeLinkType="linkedAsymmetric" endPoint="0" shape="19" startPoint="0" type="log"/>
          <fadeOut crossFadeLinkType="linkedAsymmetric" endPoint="240000" shape="19" startPoint="240000" type="log"/>
          <editParameter parameterIndex="0" slotIndex="4294967280"/>
          <editParameter parameterIndex="0" slotIndex="4294967281"/>
          <channelMap>
            <channel index="0" sourceIndex="0"/>
            <channel index="1" sourceIndex="1"/>
          </channelMap>
        </audioClip>
        <audioClip clipAutoCrossfade="true" crossFadeHeadClipID="-1" crossFadeTailClipID="-1" endPoint="960000" fileID="0" hue="-1" id="3" lockedInTime="false" looped="false" name="Laurent Garnier - Crispy Bacon" offline="false" select="false" sourceInPoint="720000" sourceOutPoint="960000" startPoint="720000" zOrder="3">
          <component componentGuid="d020b8e5-ab3d-4c27-9a12-1903af4e556f" componentID="Audition.Fader" id="clipGain" name="volume" powered="true">
            <parameter index="0" name="volume" parameterValue="1"/>
            <parameter index="1" name="static gain" parameterValue="1"/>
          </component>
          <component componentGuid="1779b79f-cd5c-45d1-82da-afff28dc12af" componentID="Audition.Mute" id="clipMute" name="Mute" powered="true">
            <parameter index="0" parameterValue="0"/>
            <parameter index="1" name="mute" parameterValue="0"/>
          </component>
          <component componentGuid="eb5ae433-5c60-4d8d-a862-d467e8beba25" componentID="Audition.StereoPanner" id="clipPan" name="StereoPanner" powered="true">
            <parameter index="0" name="Pan" parameterValue="0"/>
          </component>
          <fadeIn crossFadeLinkType="linkedAsymmetric" endPoint="0" shape="19" startPoint="0" type="log"/>
          <fadeOut crossFadeLinkType="linkedAsymmetric" endPoint="240000" shape="19" startPoint="240000" type="log"/>
          <editParameter parameterIndex="0" slotIndex="4294967280"/>
          <editParameter parameterIndex="0" slotIndex="4294967281"/>
          <channelMap>
            <channel index="0" sourceIndex="0"/>
            <channel index="1" sourceIndex="1"/>
          </channelMap>
        </audioClip>
        <audioClip clipAutoCrossfade="true" crossFadeHeadClipID="-1" crossFadeTailClipID="-1" endPoint="1200000" fileID="0" hue="-1" id="4" lockedInTime="false" looped="false" name="Laurent Garnier - Crispy Bacon" offline="false" select="false" sourceInPoint="960000" sourceOutPoint="1200000" startPoint="960000" zOrder="4">
          <component componentGuid="aa8dcd73-cb15-413e-8cfe-06f1d097e497" componentID="Audition.Fader" id="clipGain" name="volume" powered="true">
            <parameter index="0" name="volume" parameterValue="1"/>
            <parameter index="1" name="static gain" parameterValue="1"/>
          </component>
          <component componentGuid="badcfd7a-4dd9-465f-8656-d4375d7e5f75" componentID="Audition.Mute" id="clipMute" name="Mute" powered="true">
            <parameter index="0" parameterValue="0"/>
            <parameter index="1" name="mute" parameterValue="0"/>
          </component>
          <component componentGuid="3fa2e16f-0079-42d6-a60a-c7d1a2ed7571" componentID="Audition.StereoPanner" id="clipPan" name="StereoPanner" powered="true">
            <parameter index="0" name="Pan" parameterValue="0"/>
          </component>
          <fadeIn crossFadeLinkType="linkedAsymmetric" endPoint="0" shape="19" startPoint="0" type="log"/>
          <fadeOut crossFadeLinkType="linkedAsymmetric" endPoint="240000" shape="19" startPoint="240000" type="log"/>
          <editParameter parameterIndex="0" slotIndex="4294967280"/>
          <editParameter parameterIndex="0" slotIndex="4294967281"/>
          <channelMap>
            <channel index="0" sourceIndex="0"/>
            <channel index="1" sourceIndex="1"/>
          </channelMap>
        </audioClip>
        <audioClip clipAutoCrossfade="true" crossFadeHeadClipID="-1" crossFadeTailClipID="-1" endPoint="1440000" fileID="0" hue="-1" id="5" lockedInTime="false" looped="false" name="Laurent Garnier - Crispy Bacon" offline="false" select="false" sourceInPoint="1200000" sourceOutPoint="1440000" startPoint="1200000" zOrder="5">
          <component componentGuid="72db339a-a971-4e15-8a97-a60f80e72efa" componentID="Audition.Fader" id="clipGain" name="volume" powered="true">
            <parameter index="0" name="volume" parameterValue="1"/>
            <parameter index="1" name="static gain" parameterValue="1"/>
          </component>
          <component componentGuid="21bdcf5d-3595-4c90-af9a-f77696d151fa" componentID="Audition.Mute" id="clipMute" name="Mute" powered="true">
            <parameter index="0" parameterValue="0"/>
            <parameter index="1" name="mute" parameterValue="0"/>
          </component>
          <component componentGuid="48487d47-b3e2-458b-a869-7d7f5c679750" componentID="Audition.StereoPanner" id="clipPan" name="StereoPanner" powered="true">
            <parameter index="0" name="Pan" parameterValue="0"/>
          </component>
          <fadeIn crossFadeLinkType="linkedAsymmetric" endPoint="0" shape="19" startPoint="0" type="log"/>
          <fadeOut crossFadeLinkType="linkedAsymmetric" endPoint="240000" shape="19" startPoint="240000" type="log"/>
          <editParameter parameterIndex="0" slotIndex="4294967280"/>
          <editParameter parameterIndex="0" slotIndex="4294967281"/>
          <channelMap>
            <channel index="0" sourceIndex="0"/>
            <channel index="1" sourceIndex="1"/>
          </channelMap>
        </audioClip>
        <audioClip clipAutoCrossfade="true" crossFadeHeadClipID="-1" crossFadeTailClipID="-1" endPoint="1680000" fileID="0" hue="-1" id="6" lockedInTime="false" looped="false" name="Laurent Garnier - Crispy Bacon" offline="false" select="false" sourceInPoint="1440000" sourceOutPoint="1680000" startPoint="1440000" zOrder="6">
          <component componentGuid="d5355b6f-1da5-4aa3-b496-86369d9ca706" componentID="Audition.Fader" id="clipGain" name="volume" powered="true">
            <parameter index="0" name="volume" parameterValue="1"/>
            <parameter index="1" name="static gain" parameterValue="1"/>
          </component>
          <component componentGuid="6b2f3981-f449-4bc2-bbdb-0c8f72fcf8d8" componentID="Audition.Mute" id="clipMute" name="Mute" powered="true">
            <parameter index="0" parameterValue="0"/>
            <parameter index="1" name="mute" parameterValue="0"/>
          </component>
          <component componentGuid="dbd97274-112b-48f3-9e26-b12b38f516f7" componentID="Audition.StereoPanner" id="clipPan" name="StereoPanner" powered="true">
            <parameter index="0" name="Pan" parameterValue="0"/>
          </component>
          <fadeIn crossFadeLinkType="linkedAsymmetric" endPoint="0" shape="19" startPoint="0" type="log"/>
          <fadeOut crossFadeLinkType="linkedAsymmetric" endPoint="240000" shape="19" startPoint="240000" type="log"/>
          <editParameter parameterIndex="0" slotIndex="4294967280"/>
          <editParameter parameterIndex="0" slotIndex="4294967281"/>
          <channelMap>
            <channel index="0" sourceIndex="0"/>
            <channel index="1" sourceIndex="1"/>
          </channelMap>
        </audioClip>
        <audioClip clipAutoCrossfade="true" crossFadeHeadClipID="-1" crossFadeTailClipID="-1" endPoint="1920000" fileID="0" hue="-1" id="7" lockedInTime="false" looped="false" name="Laurent Garnier - Crispy Bacon" offline="false" select="false" sourceInPoint="1680000" sourceOutPoint="1920000" startPoint="1680000" zOrder="7">
          <component componentGuid="8ad06bb4-6fac-4391-866f-3a990b198663" componentID="Audition.Fader" id="clipGain" name="volume" powered="true">
            <parameter index="0" name="volume" parameterValue="1"/>
            <parameter index="1" name="static gain" parameterValue="1"/>
          </component>
          <component componentGuid="a1eab2b6-edfe-4d21-a657-a794c8ece1b0" componentID="Audition.Mute" id="clipMute" name="Mute" powered="true">
            <parameter index="0" parameterValue="0"/>
            <parameter index="1" name="mute" parameterValue="0"/>
          </component>
          <component componentGuid="436142c2-07c5-460c-a0db-2f97aa245f3c" componentID="Audition.StereoPanner" id="clipPan" name="StereoPanner" powered="true">
            <parameter index="0" name="Pan" parameterValue="0"/>
          </component>
          <fadeIn crossFadeLinkType="linkedAsymmetric" endPoint="0" shape="19" startPoint="0" type="log"/>
          <fadeOut crossFadeLinkType="linkedAsymmetric" endPoint="240000" shape="19" startPoint="240000" type="log"/>
          <editParameter parameterIndex="0" slotIndex="4294967280"/>
          <editParameter parameterIndex="0" slotIndex="4294967281"/>
          <channelMap>
            <channel index="0" sourceIndex="0"/>
            <channel index="1" sourceIndex="1"/>
          </channelMap>
        </audioClip>
        <audioClip clipAutoCrossfade="true" crossFadeHeadClipID="-1" crossFadeTailClipID="-1" endPoint="2160000" fileID="0" hue="-1" id="8" lockedInTime="false" looped="false" name="Laurent Garnier - Crispy Bacon" offline="false" select="false" sourceInPoint="1920000" sourceOutPoint="2160000" startPoint="1920000" zOrder="8">
          <component componentGuid="3c8a115c-640d-493c-b2b3-8c0a434beb9b" componentID="Audition.Fader" id="clipGain" name="volume" powered="true">
            <parameter index="0" name="volume" parameterValue="1"/>
            <parameter index="1" name="static gain" parameterValue="1"/>
          </component>
          <component componentGuid="2a0de22d-fc22-471d-90d6-c437684ac549" componentID="Audition.Mute" id="clipMute" name="Mute" powered="true">
            <parameter index="0" parameterValue="0"/>
            <parameter index="1" name="mute" parameterValue="0"/>
          </component>
          <component componentGuid="487daa6d-70cb-4cb2-9214-9db8cbaeddc4" componentID="Audition.StereoPanner" id="clipPan" name="StereoPanner" powered="true">
            <parameter index="0" name="Pan" parameterValue="0"/>
          </component>
          <fadeIn crossFadeLinkType="linkedAsymmetric" endPoint="0" shape="19" startPoint="0" type="log"/>
          <fadeOut crossFadeLinkType="linkedAsymmetric" endPoint="240000" shape="19" startPoint="240000" type="log"/>
          <editParameter parameterIndex="0" slotIndex="4294967280"/>
          <editParameter parameterIndex="0" slotIndex="4294967281"/>
          <channelMap>
            <channel index="0" sourceIndex="0"/>
            <channel index="1" sourceIndex="1"/>
          </channelMap>
        </audioClip>
        <audioClip clipAutoCrossfade="true" crossFadeHeadClipID="-1" crossFadeTailClipID="-1" endPoint="2400000" fileID="0" hue="-1" id="9" lockedInTime="false" looped="false" name="Laurent Garnier - Crispy Bacon" offline="false" select="false" sourceInPoint="2160000" sourceOutPoint="2400000" startPoint="2160000" zOrder="9">
          <component componentGuid="c365f9f6-a5cf-4eb0-b72e-cb2818a1ca8d" componentID="Audition.Fader" id="clipGain" name="volume" powered="true">
            <parameter index="0" name="volume" parameterValue="1"/>
            <parameter index="1" name="static gain" parameterValue="1"/>
          </component>
          <component componentGuid="6ba2824e-c0e1-4974-ba98-345a014cc3d8" componentID="Audition.Mute" id="clipMute" name="Mute" powered="true">
            <parameter index="0" parameterValue="0"/>
            <parameter index="1" name="mute" parameterValue="0"/>
          </component>
          <component componentGuid="72c1e8f5-5305-4cad-a520-549b9ff7f83e" componentID="Audition.StereoPanner" id="clipPan" name="StereoPanner" powered="true">
            <parameter index="0" name="Pan" parameterValue="0"/>
          </component>
          <fadeIn crossFadeLinkType="linkedAsymmetric" endPoint="0" shape="19" startPoint="0" type="log"/>
          <fadeOut crossFadeLinkType="linkedAsymmetric" endPoint="240000" shape="19" startPoint="240000" type="log"/>
          <editParameter parameterIndex="0" slotIndex="4294967280"/>
          <editParameter parameterIndex="0" slotIndex="4294967281"/>
          <channelMap>
            <channel index="0" sourceIndex="0"/>
            <channel index="1" sourceIndex="1"/>
          </channelMap>
        </audioClip>
        <audioClip clipAutoCrossfade="true" crossFadeHeadClipID="-1" crossFadeTailClipID="-1" endPoint="2640000" fileID="0" hue="-1" id="10" lockedInTime="false" looped="false" name="Laurent Garnier - Crispy Bacon" offline="false" select="false" sourceInPoint="2400000" sourceOutPoint="2640000" startPoint="2400000" zOrder="10">
          <component componentGuid="ef829dec-b39d-4a69-a851-8f94d3369c27" componentID="Audition.Fader" id="clipGain" name="volume" powered="true">
            <parameter index="0" name="volume" parameterValue="1"/>
            <parameter index="1" name="static gain" parameterValue="1"/>
          </component>
          <component componentGuid="aea026dd-f572-4837-a005-6ebab64e44e7" componentID="Audition.Mute" id="clipMute" name="Mute" powered="true">
            <parameter index="0" parameterValue="0"/>
            <parameter index="1" name="mute" parameterValue="0"/>
          </component>
          <component componentGuid="34f6594a-e38f-43e1-bcb5-a97c9a51c581" componentID="Audition.StereoPanner" id="clipPan" name="StereoPanner" powered="true">
            <parameter index="0" name="Pan" parameterValue="0"/>
          </component>
          <fadeIn crossFadeLinkType="linkedAsymmetric" endPoint="0" shape="19" startPoint="0" type="log"/>
          <fadeOut crossFadeLinkType="linkedAsymmetric" endPoint="240000" shape="19" startPoint="240000" type="log"/>
          <editParameter parameterIndex="0" slotIndex="4294967280"/>
          <editParameter parameterIndex="0" slotIndex="4294967281"/>
          <channelMap>
            <channel index="0" sourceIndex="0"/>
            <channel index="1" sourceIndex="1"/>
          </channelMap>
        </audioClip>
        <audioClip clipAutoCrossfade="true" crossFadeHeadClipID="-1" crossFadeTailClipID="-1" endPoint="2880000" fileID="0" hue="-1" id="11" lockedInTime="false" looped="false" name="Laurent Garnier - Crispy Bacon" offline="false" select="false" sourceInPoint="2640000" sourceOutPoint="2880000" startPoint="2640000" zOrder="11">
          <component componentGuid="c39b6cc9-ace1-4cdf-be74-84b9df54aac8" componentID="Audition.Fader" id="clipGain" name="volume" powered="true">
            <parameter index="0" name="volume" parameterValue="1"/>
            <parameter index="1" name="static gain" parameterValue="1"/>
          </component>
          <component componentGuid="13025e6d-38be-4b10-9765-9847cbfca4dd" componentID="Audition.Mute" id="clipMute" name="Mute" powered="true">
            <parameter index="0" parameterValue="0"/>
            <parameter index="1" name="mute" parameterValue="0"/>
          </component>
          <component componentGuid="b2e65c7d-07df-40e7-8708-70ed58758341" componentID="Audition.StereoPanner" id="clipPan" name="StereoPanner" powered="true">
            <parameter index="0" name="Pan" parameterValue="0"/>
          </component>
          <fadeIn crossFadeLinkType="linkedAsymmetric" endPoint="0" shape="19" startPoint="0" type="log"/>
          <fadeOut crossFadeLinkType="linkedAsymmetric" endPoint="240000" shape="19" startPoint="240000" type="log"/>
          <editParameter parameterIndex="0" slotIndex="4294967280"/>
          <editParameter parameterIndex="0" slotIndex="4294967281"/>
          <channelMap>
            <channel index="0" sourceIndex="0"/>
            <channel index="1" sourceIndex="1"/>
          </channelMap>
        </audioClip>
        <audioClip clipAutoCrossfade="true" crossFadeHeadClipID="-1" crossFadeTailClipID="-1" endPoint="3120000" fileID="0" hue="-1" id="12" lockedInTime="false" looped="false" name="Laurent Garnier - Crispy Bacon" offline="false" select="false" sourceInPoint="2880000" sourceOutPoint="3120000" startPoint="2880000" zOrder="12">
          <component componentGuid="c82485bb-1438-4330-9d4a-d09e659ca3c9" componentID="Audition.Fader" id="clipGain" name="volume" powered="true">
            <parameter index="0" name="volume" parameterValue="1"/>
            <parameter index="1" name="static gain" parameterValue="1"/>
          </component>
          <component componentGuid="69ffcd93-d060-4904-b1c6-e3ee62405b34" componentID="Audition.Mute" id="clipMute" name="Mute" powered="true">
            <parameter index="0" parameterValue="0"/>
            <parameter index="1" name="mute" parameterValue="0"/>
          </component>
          <component componentGuid="5d2b06a5-4805-44a0-8036-91f0e616906f" componentID="Audition.StereoPanner" id="clipPan" name="StereoPanner" powered="true">
            <parameter index="0" name="Pan" parameterValue="0"/>
          </component>
          <fadeIn crossFadeLinkType="linkedAsymmetric" endPoint="0" shape="19" startPoint="0" type="log"/>
          <fadeOut crossFadeLinkType="linkedAsymmetric" endPoint="240000" shape="19" startPoint="240000" type="log"/>
          <editParameter parameterIndex="0" slotIndex="4294967280"/>
          <editParameter parameterIndex="0" slotIndex="4294967281"/>
          <channelMap>
            <channel index="0" sourceIndex="0"/>
            <channel index="1" sourceIndex="1"/>
          </channelMap>
        </audioClip>
        <audioClip clipAutoCrossfade="true" crossFadeHeadClipID="-1" crossFadeTailClipID="-1" endPoint="3360000" fileID="0" hue="-1" id="13" lockedInTime="false" looped="false" name="Laurent Garnier - Crispy Bacon" offline="false" select="false" sourceInPoint="3120000" sourceOutPoint="3360000" startPoint="3120000" zOrder="13">
          <component componentGuid="5636dfd4-8abf-45e5-81b3-536aeec3e8e7" componentID="Audition.Fader" id="clipGain" name="volume" powered="true">
            <parameter index="0" name="volume" parameterValue="1"/>
            <parameter index="1" name="static gain" parameterValue="1"/>
          </component>
          <component componentGuid="8dac4d05-7189-49cb-8946-4b69658ad11f" componentID="Audition.Mute" id="clipMute" name="Mute" powered="true">
            <parameter index="0" parameterValue="0"/>
            <parameter index="1" name="mute" parameterValue="0"/>
          </component>
          <component componentGuid="a077ebcc-5477-434d-93e8-c4676af38c14" componentID="Audition.StereoPanner" id="clipPan" name="StereoPanner" powered="true">
            <parameter index="0" name="Pan" parameterValue="0"/>
          </component>
          <fadeIn crossFadeLinkType="linkedAsymmetric" endPoint="0" shape="19" startPoint="0" type="log"/>
          <fadeOut crossFadeLinkType="linkedAsymmetric" endPoint="240000" shape="19" startPoint="240000" type="log"/>
          <editParameter parameterIndex="0" slotIndex="4294967280"/>
          <editParameter parameterIndex="0" slotIndex="4294967281"/>
          <channelMap>
            <channel index="0" sourceIndex="0"/>
            <channel index="1" sourceIndex="1"/>
          </channelMap>
        </audioClip>
        <audioClip clipAutoCrossfade="true" crossFadeHeadClipID="-1" crossFadeTailClipID="-1" endPoint="3600000" fileID="0" hue="-1" id="14" lockedInTime="false" looped="false" name="Laurent Garnier - Crispy Bacon" offline="false" select="false" sourceInPoint="3360000" sourceOutPoint="3600000" startPoint="3360000" zOrder="14">
          <component componentGuid="efc715b3-4d56-4c3e-9aed-2dc3b5bce5af" componentID="Audition.Fader" id="clipGain" name="volume" powered="true">
            <parameter index="0" name="volume" parameterValue="1"/>
            <parameter index="1" name="static gain" parameterValue="1"/>
          </component>
          <component componentGuid="7bded08b-b50d-4708-914e-c0ef80122111" componentID="Audition.Mute" id="clipMute" name="Mute" powered="true">
            <parameter index="0" parameterValue="0"/>
            <parameter index="1" name="mute" parameterValue="0"/>
          </component>
          <component componentGuid="e63b4521-9fe4-4698-81a1-7d725db146ae" componentID="Audition.StereoPanner" id="clipPan" name="StereoPanner" powered="true">
            <parameter index="0" name="Pan" parameterValue="0"/>
          </component>
          <fadeIn crossFadeLinkType="linkedAsymmetric" endPoint="0" shape="19" startPoint="0" type="log"/>
          <fadeOut crossFadeLinkType="linkedAsymmetric" endPoint="240000" shape="19" startPoint="240000" type="log"/>
          <editParameter parameterIndex="0" slotIndex="4294967280"/>
          <editParameter parameterIndex="0" slotIndex="4294967281"/>
          <channelMap>
            <channel index="0" sourceIndex="0"/>
            <channel index="1" sourceIndex="1"/>
          </channelMap>
        </audioClip>
        <audioClip clipAutoCrossfade="true" crossFadeHeadClipID="-1" crossFadeTailClipID="-1" endPoint="3840000" fileID="0" hue="-1" id="15" lockedInTime="false" looped="false" name="Laurent Garnier - Crispy Bacon" offline="false" select="false" sourceInPoint="3600000" sourceOutPoint="3840000" startPoint="3600000" zOrder="15">
          <component componentGuid="e4fcb5c7-961c-4b7a-a7c7-7d723f8ac19d" componentID="Audition.Fader" id="clipGain" name="volume" powered="true">
            <parameter index="0" name="volume" parameterValue="1"/>
            <parameter index="1" name="static gain" parameterValue="1"/>
          </component>
          <component componentGuid="591e6c44-8868-415e-a846-efacef4cf521" componentID="Audition.Mute" id="clipMute" name="Mute" powered="true">
            <parameter index="0" parameterValue="0"/>
            <parameter index="1" name="mute" parameterValue="0"/>
          </component>
          <component componentGuid="2e5e66bb-292a-44a9-90fa-cc8e985a30f7" componentID="Audition.StereoPanner" id="clipPan" name="StereoPanner" powered="true">
            <parameter index="0" name="Pan" parameterValue="0"/>
          </component>
          <fadeIn crossFadeLinkType="linkedAsymmetric" endPoint="0" shape="19" startPoint="0" type="log"/>
          <fadeOut crossFadeLinkType="linkedAsymmetric" endPoint="240000" shape="19" startPoint="240000" type="log"/>
          <editParameter parameterIndex="0" slotIndex="4294967280"/>
          <editParameter parameterIndex="0" slotIndex="4294967281"/>
          <channelMap>
            <channel index="0" sourceIndex="0"/>
            <channel index="1" sourceIndex="1"/>
          </channelMap>
        </audioClip>
        <audioClip clipAutoCrossfade="true" crossFadeHeadClipID="-1" crossFadeTailClipID="-1" endPoint="4080000" fileID="0" hue="-1" id="16" lockedInTime="false" looped="false" name="Laurent Garnier - Crispy Bacon" offline="false" select="false" sourceInPoint="3840000" sourceOutPoint="4080000" startPoint="3840000" zOrder="16">
          <component componentGuid="80ec32b4-aa3a-4397-87b3-d59ddbae3bae" componentID="Audition.Fader" id="clipGain" name="volume" powered="true">
            <parameter index="0" name="volume" parameterValue="1"/>
            <parameter index="1" name="static gain" parameterValue="1"/>
          </component>
          <component componentGuid="640e7915-b651-4cab-817a-8d7d41f63ca3" componentID="Audition.Mute" id="clipMute" name="Mute" powered="true">
            <parameter index="0" parameterValue="0"/>
            <parameter index="1" name="mute" parameterValue="0"/>
          </component>
          <component componentGuid="705ec8c6-5d2c-4850-93fa-5949ddb86379" componentID="Audition.StereoPanner" id="clipPan" name="StereoPanner" powered="true">
            <parameter index="0" name="Pan" parameterValue="0"/>
          </component>
          <fadeIn crossFadeLinkType="linkedAsymmetric" endPoint="0" shape="19" startPoint="0" type="log"/>
          <fadeOut crossFadeLinkType="linkedAsymmetric" endPoint="240000" shape="19" startPoint="240000" type="log"/>
          <editParameter parameterIndex="0" slotIndex="4294967280"/>
          <editParameter parameterIndex="0" slotIndex="4294967281"/>
          <channelMap>
            <channel index="0" sourceIndex="0"/>
            <channel index="1" sourceIndex="1"/>
          </channelMap>
        </audioClip>
        <audioClip clipAutoCrossfade="true" crossFadeHeadClipID="-1" crossFadeTailClipID="-1" endPoint="4320000" fileID="0" hue="-1" id="17" lockedInTime="false" looped="false" name="Laurent Garnier - Crispy Bacon" offline="false" select="false" sourceInPoint="4080000" sourceOutPoint="4320000" startPoint="4080000" zOrder="17">
          <component componentGuid="a949842f-1553-4f19-8587-e054fdbdc551" componentID="Audition.Fader" id="clipGain" name="volume" powered="true">
            <parameter index="0" name="volume" parameterValue="1"/>
            <parameter index="1" name="static gain" parameterValue="1"/>
          </component>
          <component componentGuid="eabb9ed6-dd90-4581-a458-63bd119f85a6" componentID="Audition.Mute" id="clipMute" name="Mute" powered="true">
            <parameter index="0" parameterValue="0"/>
            <parameter index="1" name="mute" parameterValue="0"/>
          </component>
          <component componentGuid="9eccae6b-c799-46fa-bb35-6e2240816a80" componentID="Audition.StereoPanner" id="clipPan" name="StereoPanner" powered="true">
            <parameter index="0" name="Pan" parameterValue="0"/>
          </component>
          <fadeIn crossFadeLinkType="linkedAsymmetric" endPoint="0" shape="19" startPoint="0" type="log"/>
          <fadeOut crossFadeLinkType="linkedAsymmetric" endPoint="240000" shape="19" startPoint="240000" type="log"/>
          <editParameter parameterIndex="0" slotIndex="4294967280"/>
          <editParameter parameterIndex="0" slotIndex="4294967281"/>
          <channelMap>
            <channel index="0" sourceIndex="0"/>
            <channel index="1" sourceIndex="1"/>
          </channelMap>
        </audioClip>
        <audioClip clipAutoCrossfade="true" crossFadeHeadClipID="-1" crossFadeTailClipID="-1" endPoint="4560000" fileID="0" hue="-1" id="18" lockedInTime="false" looped="false" name="Laurent Garnier - Crispy Bacon" offline="false" select="false" sourceInPoint="4320000" sourceOutPoint="4560000" startPoint="4320000" zOrder="18">
          <component componentGuid="f3f86bfb-d386-4c28-9350-40876f1aa610" componentID="Audition.Fader" id="clipGain" name="volume" powered="true">
            <parameter index="0" name="volume" parameterValue="1"/>
            <parameter index="1" name="static gain" parameterValue="1"/>
          </component>
          <component componentGuid="d53b7b11-70c8-4e21-b3d5-c0cc2fa1df3a" componentID="Audition.Mute" id="clipMute" name="Mute" powered="true">
            <parameter index="0" parameterValue="0"/>
            <parameter index="1" name="mute" parameterValue="0"/>
          </component>
          <component componentGuid="d7f2beef-305c-4fdc-8708-4190c926789f" componentID="Audition.StereoPanner" id="clipPan" name="StereoPanner" powered="true">
            <parameter index="0" name="Pan" parameterValue="0"/>
          </component>
          <fadeIn crossFadeLinkType="linkedAsymmetric" endPoint="0" shape="19" startPoint="0" type="log"/>
          <fadeOut crossFadeLinkType="linkedAsymmetric" endPoint="240000" shape="19" startPoint="240000" type="log"/>
          <editParameter parameterIndex="0" slotIndex="4294967280"/>
          <editParameter parameterIndex="0" slotIndex="4294967281"/>
          <channelMap>
            <channel index="0" sourceIndex="0"/>
            <channel index="1" sourceIndex="1"/>
          </channelMap>
        </audioClip>
        <audioClip clipAutoCrossfade="true" crossFadeHeadClipID="-1" crossFadeTailClipID="-1" endPoint="4800000" fileID="0" hue="-1" id="19" lockedInTime="false" looped="false" name="Laurent Garnier - Crispy Bacon" offline="false" select="false" sourceInPoint="4560000" sourceOutPoint="4800000" startPoint="4560000" zOrder="19">
          <component componentGuid="daa88771-abbb-403c-9993-46e4fe25c970" componentID="Audition.Fader" id="clipGain" name="volume" powered="true">
            <parameter index="0" name="volume" parameterValue="1"/>
            <parameter index="1" name="static gain" parameterValue="1"/>
          </component>
          <component componentGuid="f38df86c-a627-4fda-9bcf-78e5a74775fd" componentID="Audition.Mute" id="clipMute" name="Mute" powered="true">
            <parameter index="0" parameterValue="0"/>
            <parameter index="1" name="mute" parameterValue="0"/>
          </component>
          <component componentGuid="9d3f61c0-520f-4093-8d61-c59138c55455" componentID="Audition.StereoPanner" id="clipPan" name="StereoPanner" powered="true">
            <parameter index="0" name="Pan" parameterValue="0"/>
          </component>
          <fadeIn crossFadeLinkType="linkedAsymmetric" endPoint="0" shape="19" startPoint="0" type="log"/>
          <fadeOut crossFadeLinkType="linkedAsymmetric" endPoint="240000" shape="19" startPoint="240000" type="log"/>
          <editParameter parameterIndex="0" slotIndex="4294967280"/>
          <editParameter parameterIndex="0" slotIndex="4294967281"/>
          <channelMap>
            <channel index="0" sourceIndex="0"/>
            <channel index="1" sourceIndex="1"/>
          </channelMap>
        </audioClip>
        <audioClip clipAutoCrossfade="true" crossFadeHeadClipID="-1" crossFadeTailClipID="-1" endPoint="5040000" fileID="0" hue="-1" id="20" lockedInTime="false" looped="false" name="Laurent Garnier - Crispy Bacon" offline="false" select="false" sourceInPoint="4800000" sourceOutPoint="5040000" startPoint="4800000" zOrder="20">
          <component componentGuid="4ad778a7-564d-4b66-8046-be5a175599cf" componentID="Audition.Fader" id="clipGain" name="volume" powered="true">
            <parameter index="0" name="volume" parameterValue="1"/>
            <parameter index="1" name="static gain" parameterValue="1"/>
          </component>
          <component componentGuid="a6056f72-1bb1-454f-99a1-2f38f3c8a6bf" componentID="Audition.Mute" id="clipMute" name="Mute" powered="true">
            <parameter index="0" parameterValue="0"/>
            <parameter index="1" name="mute" parameterValue="0"/>
          </component>
          <component componentGuid="93abf7b3-b5c4-44d4-b0bb-66358f1af419" componentID="Audition.StereoPanner" id="clipPan" name="StereoPanner" powered="true">
            <parameter index="0" name="Pan" parameterValue="0"/>
          </component>
          <fadeIn crossFadeLinkType="linkedAsymmetric" endPoint="0" shape="19" startPoint="0" type="log"/>
          <fadeOut crossFadeLinkType="linkedAsymmetric" endPoint="240000" shape="19" startPoint="240000" type="log"/>
          <editParameter parameterIndex="0" slotIndex="4294967280"/>
          <editParameter parameterIndex="0" slotIndex="4294967281"/>
          <channelMap>
            <channel index="0" sourceIndex="0"/>
            <channel index="1" sourceIndex="1"/>
          </channelMap>
        </audioClip>
        <audioClip clipAutoCrossfade="true" crossFadeHeadClipID="-1" crossFadeTailClipID="-1" endPoint="5280000" fileID="0" hue="-1" id="21" lockedInTime="false" looped="false" name="Laurent Garnier - Crispy Bacon" offline="false" select="false" sourceInPoint="5040000" sourceOutPoint="5280000" startPoint="5040000" zOrder="21">
          <component componentGuid="a3ba976a-cd0d-4741-836f-49cf589fcc97" componentID="Audition.Fader" id="clipGain" name="volume" powered="true">
            <parameter index="0" name="volume" parameterValue="1"/>
            <parameter index="1" name="static gain" parameterValue="1"/>
          </component>
          <component componentGuid="4396447f-306d-4ff2-b49e-deb50179746f" componentID="Audition.Mute" id="clipMute" name="Mute" powered="true">
            <parameter index="0" parameterValue="0"/>
            <parameter index="1" name="mute" parameterValue="0"/>
          </component>
          <component componentGuid="c034d5cb-f1ec-47ba-be79-7df22933c468" componentID="Audition.StereoPanner" id="clipPan" name="StereoPanner" powered="true">
            <parameter index="0" name="Pan" parameterValue="0"/>
          </component>
          <fadeIn crossFadeLinkType="linkedAsymmetric" endPoint="0" shape="19" startPoint="0" type="log"/>
          <fadeOut crossFadeLinkType="linkedAsymmetric" endPoint="240000" shape="19" startPoint="240000" type="log"/>
          <editParameter parameterIndex="0" slotIndex="4294967280"/>
          <editParameter parameterIndex="0" slotIndex="4294967281"/>
          <channelMap>
            <channel index="0" sourceIndex="0"/>
            <channel index="1" sourceIndex="1"/>
          </channelMap>
        </audioClip>
        <audioClip clipAutoCrossfade="true" crossFadeHeadClipID="-1" crossFadeTailClipID="-1" endPoint="5520000" fileID="0" hue="-1" id="22" lockedInTime="false" looped="false" name="Laurent Garnier - Crispy Bacon" offline="false" select="false" sourceInPoint="5280000" sourceOutPoint="5520000" startPoint="5280000" zOrder="22">
          <component componentGuid="65af640e-3309-4a04-a8ab-26091c38fce4" componentID="Audition.Fader" id="clipGain" name="volume" powered="true">
            <parameter index="0" name="volume" parameterValue="1"/>
            <parameter index="1" name="static gain" parameterValue="1"/>
          </component>
          <component componentGuid="2a2b75ff-d1e0-46a6-83ba-78decc4ad1a3" componentID="Audition.Mute" id="clipMute" name="Mute" powered="true">
            <parameter index="0" parameterValue="0"/>
            <parameter index="1" name="mute" parameterValue="0"/>
          </component>
          <component componentGuid="95058e09-3461-47c7-b003-9d70f124ff47" componentID="Audition.StereoPanner" id="clipPan" name="StereoPanner" powered="true">
            <parameter index="0" name="Pan" parameterValue="0"/>
          </component>
          <fadeIn crossFadeLinkType="linkedAsymmetric" endPoint="0" shape="19" startPoint="0" type="log"/>
          <fadeOut crossFadeLinkType="linkedAsymmetric" endPoint="240000" shape="19" startPoint="240000" type="log"/>
          <editParameter parameterIndex="0" slotIndex="4294967280"/>
          <editParameter parameterIndex="0" slotIndex="4294967281"/>
          <channelMap>
            <channel index="0" sourceIndex="0"/>
            <channel index="1" sourceIndex="1"/>
          </channelMap>
        </audioClip>
        <audioClip clipAutoCrossfade="true" crossFadeHeadClipID="-1" crossFadeTailClipID="-1" endPoint="5760000" fileID="0" hue="-1" id="23" lockedInTime="false" looped="false" name="Laurent Garnier - Crispy Bacon" offline="false" select="false" sourceInPoint="5520000" sourceOutPoint="5760000" startPoint="5520000" zOrder="23">
          <component componentGuid="cd128ed6-e35b-40bb-be50-9fbe889b23ed" componentID="Audition.Fader" id="clipGain" name="volume" powered="true">
            <parameter index="0" name="volume" parameterValue="1"/>
            <parameter index="1" name="static gain" parameterValue="1"/>
          </component>
          <component componentGuid="63615463-5384-4668-ad1c-8d7c102b99b8" componentID="Audition.Mute" id="clipMute" name="Mute" powered="true">
            <parameter index="0" parameterValue="0"/>
            <parameter index="1" name="mute" parameterValue="0"/>
          </component>
          <component componentGuid="47f1a1ad-5c4e-450f-af44-2b724a1ba2a4" componentID="Audition.StereoPanner" id="clipPan" name="StereoPanner" powered="true">
            <parameter index="0" name="Pan" parameterValue="0"/>
          </component>
          <fadeIn crossFadeLinkType="linkedAsymmetric" endPoint="0" shape="19" startPoint="0" type="log"/>
          <fadeOut crossFadeLinkType="linkedAsymmetric" endPoint="240000" shape="19" startPoint="240000" type="log"/>
          <editParameter parameterIndex="0" slotIndex="4294967280"/>
          <editParameter parameterIndex="0" slotIndex="4294967281"/>
          <channelMap>
            <channel index="0" sourceIndex="0"/>
            <channel index="1" sourceIndex="1"/>
          </channelMap>
        </audioClip>
        <audioClip clipAutoCrossfade="true" crossFadeHeadClipID="-1" crossFadeTailClipID="-1" endPoint="6000000" fileID="0" hue="-1" id="24" lockedInTime="false" looped="false" name="Laurent Garnier - Crispy Bacon" offline="false" select="false" sourceInPoint="5760000" sourceOutPoint="6000000" startPoint="5760000" zOrder="24">
          <component componentGuid="80f714fc-5dd9-4b99-85c8-80a4cb06b1f1" componentID="Audition.Fader" id="clipGain" name="volume" powered="true">
            <parameter index="0" name="volume" parameterValue="1"/>
            <parameter index="1" name="static gain" parameterValue="1"/>
          </component>
          <component componentGuid="9c6afd7b-0b97-4a21-8927-938ef164066d" componentID="Audition.Mute" id="clipMute" name="Mute" powered="true">
            <parameter index="0" parameterValue="0"/>
            <parameter index="1" name="mute" parameterValue="0"/>
          </component>
          <component componentGuid="bdbb1638-e086-4f2b-83fb-1d11e4745884" componentID="Audition.StereoPanner" id="clipPan" name="StereoPanner" powered="true">
            <parameter index="0" name="Pan" parameterValue="0"/>
          </component>
          <fadeIn crossFadeLinkType="linkedAsymmetric" endPoint="0" shape="19" startPoint="0" type="log"/>
          <fadeOut crossFadeLinkType="linkedAsymmetric" endPoint="240000" shape="19" startPoint="240000" type="log"/>
          <editParameter parameterIndex="0" slotIndex="4294967280"/>
          <editParameter parameterIndex="0" slotIndex="4294967281"/>
          <channelMap>
            <channel index="0" sourceIndex="0"/>
            <channel index="1" sourceIndex="1"/>
          </channelMap>
        </audioClip>
        <audioClip clipAutoCrossfade="true" crossFadeHeadClipID="-1" crossFadeTailClipID="-1" endPoint="6240000" fileID="0" hue="-1" id="25" lockedInTime="false" looped="false" name="Laurent Garnier - Crispy Bacon" offline="false" select="false" sourceInPoint="6000000" sourceOutPoint="6240000" startPoint="6000000" zOrder="25">
          <component componentGuid="9a2513fa-2ee2-4114-8b22-4fa3604ede99" componentID="Audition.Fader" id="clipGain" name="volume" powered="true">
            <parameter index="0" name="volume" parameterValue="1"/>
            <parameter index="1" name="static gain" parameterValue="1"/>
          </component>
          <component componentGuid="2183111f-bf02-4ab0-b780-fa08f1bb4172" componentID="Audition.Mute" id="clipMute" name="Mute" powered="true">
            <parameter index="0" parameterValue="0"/>
            <parameter index="1" name="mute" parameterValue="0"/>
          </component>
          <component componentGuid="abf3ad1d-5ec4-4e4f-8c05-2be13e11e8a5" componentID="Audition.StereoPanner" id="clipPan" name="StereoPanner" powered="true">
            <parameter index="0" name="Pan" parameterValue="0"/>
          </component>
          <fadeIn crossFadeLinkType="linkedAsymmetric" endPoint="0" shape="19" startPoint="0" type="log"/>
          <fadeOut crossFadeLinkType="linkedAsymmetric" endPoint="240000" shape="19" startPoint="240000" type="log"/>
          <editParameter parameterIndex="0" slotIndex="4294967280"/>
          <editParameter parameterIndex="0" slotIndex="4294967281"/>
          <channelMap>
            <channel index="0" sourceIndex="0"/>
            <channel index="1" sourceIndex="1"/>
          </channelMap>
        </audioClip>
        <audioClip clipAutoCrossfade="true" crossFadeHeadClipID="-1" crossFadeTailClipID="-1" endPoint="6480000" fileID="0" hue="-1" id="26" lockedInTime="false" looped="false" name="Laurent Garnier - Crispy Bacon" offline="false" select="false" sourceInPoint="6240000" sourceOutPoint="6480000" startPoint="6240000" zOrder="26">
          <component componentGuid="add92b93-d0b8-407a-9b1e-598bfe6795ee" componentID="Audition.Fader" id="clipGain" name="volume" powered="true">
            <parameter index="0" name="volume" parameterValue="1"/>
            <parameter index="1" name="static gain" parameterValue="1"/>
          </component>
          <component componentGuid="b82e991b-6a1e-4355-81d3-57bf5cbff414" componentID="Audition.Mute" id="clipMute" name="Mute" powered="true">
            <parameter index="0" parameterValue="0"/>
            <parameter index="1" name="mute" parameterValue="0"/>
          </component>
          <component componentGuid="77f12509-12c0-4175-9e0d-4f5f624d6cb6" componentID="Audition.StereoPanner" id="clipPan" name="StereoPanner" powered="true">
            <parameter index="0" name="Pan" parameterValue="0"/>
          </component>
          <fadeIn crossFadeLinkType="linkedAsymmetric" endPoint="0" shape="19" startPoint="0" type="log"/>
          <fadeOut crossFadeLinkType="linkedAsymmetric" endPoint="240000" shape="19" startPoint="240000" type="log"/>
          <editParameter parameterIndex="0" slotIndex="4294967280"/>
          <editParameter parameterIndex="0" slotIndex="4294967281"/>
          <channelMap>
            <channel index="0" sourceIndex="0"/>
            <channel index="1" sourceIndex="1"/>
          </channelMap>
        </audioClip>
        <audioClip clipAutoCrossfade="true" crossFadeHeadClipID="-1" crossFadeTailClipID="-1" endPoint="6720000" fileID="0" hue="-1" id="27" lockedInTime="false" looped="false" name="Laurent Garnier - Crispy Bacon" offline="false" select="false" sourceInPoint="6480000" sourceOutPoint="6720000" startPoint="6480000" zOrder="27">
          <component componentGuid="6aa32dd0-8cfc-4b95-a792-5654a8b8c3a6" componentID="Audition.Fader" id="clipGain" name="volume" powered="true">
            <parameter index="0" name="volume" parameterValue="1"/>
            <parameter index="1" name="static gain" parameterValue="1"/>
          </component>
          <component componentGuid="682e16d9-92ff-4db9-bfb3-071a6fd906a4" componentID="Audition.Mute" id="clipMute" name="Mute" powered="true">
            <parameter index="0" parameterValue="0"/>
            <parameter index="1" name="mute" parameterValue="0"/>
          </component>
          <component componentGuid="41908536-155a-491f-9c29-d83fe9b09fa4" componentID="Audition.StereoPanner" id="clipPan" name="StereoPanner" powered="true">
            <parameter index="0" name="Pan" parameterValue="0"/>
          </component>
          <fadeIn crossFadeLinkType="linkedAsymmetric" endPoint="0" shape="19" startPoint="0" type="log"/>
          <fadeOut crossFadeLinkType="linkedAsymmetric" endPoint="240000" shape="19" startPoint="240000" type="log"/>
          <editParameter parameterIndex="0" slotIndex="4294967280"/>
          <editParameter parameterIndex="0" slotIndex="4294967281"/>
          <channelMap>
            <channel index="0" sourceIndex="0"/>
            <channel index="1" sourceIndex="1"/>
          </channelMap>
        </audioClip>
        <audioClip clipAutoCrossfade="true" crossFadeHeadClipID="-1" crossFadeTailClipID="-1" endPoint="6960000" fileID="0" hue="-1" id="28" lockedInTime="false" looped="false" name="Laurent Garnier - Crispy Bacon" offline="false" select="false" sourceInPoint="6720000" sourceOutPoint="6960000" startPoint="6720000" zOrder="28">
          <component componentGuid="b8ba619e-3e2c-4daf-9932-84ccd13fb534" componentID="Audition.Fader" id="clipGain" name="volume" powered="true">
            <parameter index="0" name="volume" parameterValue="1"/>
            <parameter index="1" name="static gain" parameterValue="1"/>
          </component>
          <component componentGuid="68c3e855-21ae-4dda-a2c2-e1dc18e1a0df" componentID="Audition.Mute" id="clipMute" name="Mute" powered="true">
            <parameter index="0" parameterValue="0"/>
            <parameter index="1" name="mute" parameterValue="0"/>
          </component>
          <component componentGuid="092f3c81-fe04-49db-a746-248085bd9c06" componentID="Audition.StereoPanner" id="clipPan" name="StereoPanner" powered="true">
            <parameter index="0" name="Pan" parameterValue="0"/>
          </component>
          <fadeIn crossFadeLinkType="linkedAsymmetric" endPoint="0" shape="19" startPoint="0" type="log"/>
          <fadeOut crossFadeLinkType="linkedAsymmetric" endPoint="240000" shape="19" startPoint="240000" type="log"/>
          <editParameter parameterIndex="0" slotIndex="4294967280"/>
          <editParameter parameterIndex="0" slotIndex="4294967281"/>
          <channelMap>
            <channel index="0" sourceIndex="0"/>
            <channel index="1" sourceIndex="1"/>
          </channelMap>
        </audioClip>
        <audioClip clipAutoCrossfade="true" crossFadeHeadClipID="-1" crossFadeTailClipID="-1" endPoint="7200000" fileID="0" hue="-1" id="29" lockedInTime="false" looped="false" name="Laurent Garnier - Crispy Bacon" offline="false" select="false" sourceInPoint="6960000" sourceOutPoint="7200000" startPoint="6960000" zOrder="29">
          <component componentGuid="004d3ac1-1c4e-403f-9606-d07f24b05cc3" componentID="Audition.Fader" id="clipGain" name="volume" powered="true">
            <parameter index="0" name="volume" parameterValue="1"/>
            <parameter index="1" name="static gain" parameterValue="1"/>
          </component>
          <component componentGuid="474cafb9-48c9-4e17-bca8-22c3b568e743" componentID="Audition.Mute" id="clipMute" name="Mute" powered="true">
            <parameter index="0" parameterValue="0"/>
            <parameter index="1" name="mute" parameterValue="0"/>
          </component>
          <component componentGuid="3f80593f-f954-4fe5-bb9a-b90467c0baa1" componentID="Audition.StereoPanner" id="clipPan" name="StereoPanner" powered="true">
            <parameter index="0" name="Pan" parameterValue="0"/>
          </component>
          <fadeIn crossFadeLinkType="linkedAsymmetric" endPoint="0" shape="19" startPoint="0" type="log"/>
          <fadeOut crossFadeLinkType="linkedAsymmetric" endPoint="240000" shape="19" startPoint="240000" type="log"/>
          <editParameter parameterIndex="0" slotIndex="4294967280"/>
          <editParameter parameterIndex="0" slotIndex="4294967281"/>
          <channelMap>
            <channel index="0" sourceIndex="0"/>
            <channel index="1" sourceIndex="1"/>
          </channelMap>
        </audioClip>
        <audioClip clipAutoCrossfade="true" crossFadeHeadClipID="-1" crossFadeTailClipID="-1" endPoint="7440000" fileID="0" hue="-1" id="30" lockedInTime="false" looped="false" name="Laurent Garnier - Crispy Bacon" offline="false" select="false" sourceInPoint="7200000" sourceOutPoint="7440000" startPoint="7200000" zOrder="30">
          <component componentGuid="22dffbd9-2ac8-403c-b0dd-dcf36b7c7d9d" componentID="Audition.Fader" id="clipGain" name="volume" powered="true">
            <parameter index="0" name="volume" parameterValue="1"/>
            <parameter index="1" name="static gain" parameterValue="1"/>
          </component>
          <component componentGuid="4d7f0091-bfc7-4f95-b169-896a00e40598" componentID="Audition.Mute" id="clipMute" name="Mute" powered="true">
            <parameter index="0" parameterValue="0"/>
            <parameter index="1" name="mute" parameterValue="0"/>
          </component>
          <component componentGuid="35428665-76bb-48be-a4a7-0cc5a4511c67" componentID="Audition.StereoPanner" id="clipPan" name="StereoPanner" powered="true">
            <parameter index="0" name="Pan" parameterValue="0"/>
          </component>
          <fadeIn crossFadeLinkType="linkedAsymmetric" endPoint="0" shape="19" startPoint="0" type="log"/>
          <fadeOut crossFadeLinkType="linkedAsymmetric" endPoint="240000" shape="19" startPoint="240000" type="log"/>
          <editParameter parameterIndex="0" slotIndex="4294967280"/>
          <editParameter parameterIndex="0" slotIndex="4294967281"/>
          <channelMap>
            <channel index="0" sourceIndex="0"/>
            <channel index="1" sourceIndex="1"/>
          </channelMap>
        </audioClip>
        <audioClip clipAutoCrossfade="true" crossFadeHeadClipID="-1" crossFadeTailClipID="-1" endPoint="7680000" fileID="0" hue="-1" id="31" lockedInTime="false" looped="false" name="Laurent Garnier - Crispy Bacon" offline="false" select="false" sourceInPoint="7440000" sourceOutPoint="7680000" startPoint="7440000" zOrder="31">
          <component componentGuid="beb72cc7-acd5-4db6-9450-b0cb7568ae6a" componentID="Audition.Fader" id="clipGain" name="volume" powered="true">
            <parameter index="0" name="volume" parameterValue="1"/>
            <parameter index="1" name="static gain" parameterValue="1"/>
          </component>
          <component componentGuid="88a0e7f2-f585-4ec5-816a-e6a26ebad95c" componentID="Audition.Mute" id="clipMute" name="Mute" powered="true">
            <parameter index="0" parameterValue="0"/>
            <parameter index="1" name="mute" parameterValue="0"/>
          </component>
          <component componentGuid="f89908b0-1a7f-47d0-8a8e-5b8d704875b6" componentID="Audition.StereoPanner" id="clipPan" name="StereoPanner" powered="true">
            <parameter index="0" name="Pan" parameterValue="0"/>
          </component>
          <fadeIn crossFadeLinkType="linkedAsymmetric" endPoint="0" shape="19" startPoint="0" type="log"/>
          <fadeOut crossFadeLinkType="linkedAsymmetric" endPoint="240000" shape="19" startPoint="240000" type="log"/>
          <editParameter parameterIndex="0" slotIndex="4294967280"/>
          <editParameter parameterIndex="0" slotIndex="4294967281"/>
          <channelMap>
            <channel index="0" sourceIndex="0"/>
            <channel index="1" sourceIndex="1"/>
          </channelMap>
        </audioClip>
        <audioClip clipAutoCrossfade="true" crossFadeHeadClipID="-1" crossFadeTailClipID="-1" endPoint="7920000" fileID="0" hue="-1" id="32" lockedInTime="false" looped="false" name="Laurent Garnier - Crispy Bacon" offline="false" select="false" sourceInPoint="7680000" sourceOutPoint="7920000" startPoint="7680000" zOrder="32">
          <component componentGuid="40d70108-826e-497a-8b75-dcb9eb7a16bd" componentID="Audition.Fader" id="clipGain" name="volume" powered="true">
            <parameter index="0" name="volume" parameterValue="1"/>
            <parameter index="1" name="static gain" parameterValue="1"/>
          </component>
          <component componentGuid="cc98a9c8-d2e8-49b3-a214-cc1c7cbc3223" componentID="Audition.Mute" id="clipMute" name="Mute" powered="true">
            <parameter index="0" parameterValue="0"/>
            <parameter index="1" name="mute" parameterValue="0"/>
          </component>
          <component componentGuid="87cbbcfc-1a26-4fc7-a29c-325a634ee4b5" componentID="Audition.StereoPanner" id="clipPan" name="StereoPanner" powered="true">
            <parameter index="0" name="Pan" parameterValue="0"/>
          </component>
          <fadeIn crossFadeLinkType="linkedAsymmetric" endPoint="0" shape="19" startPoint="0" type="log"/>
          <fadeOut crossFadeLinkType="linkedAsymmetric" endPoint="240000" shape="19" startPoint="240000" type="log"/>
          <editParameter parameterIndex="0" slotIndex="4294967280"/>
          <editParameter parameterIndex="0" slotIndex="4294967281"/>
          <channelMap>
            <channel index="0" sourceIndex="0"/>
            <channel index="1" sourceIndex="1"/>
          </channelMap>
        </audioClip>
        <audioClip clipAutoCrossfade="true" crossFadeHeadClipID="-1" crossFadeTailClipID="-1" endPoint="8160000" fileID="0" hue="-1" id="33" lockedInTime="false" looped="false" name="Laurent Garnier - Crispy Bacon" offline="false" select="false" sourceInPoint="7920000" sourceOutPoint="8160000" startPoint="7920000" zOrder="33">
          <component componentGuid="3cf99a58-9e64-49a4-8527-fdbb89964393" componentID="Audition.Fader" id="clipGain" name="volume" powered="true">
            <parameter index="0" name="volume" parameterValue="1"/>
            <parameter index="1" name="static gain" parameterValue="1"/>
          </component>
          <component componentGuid="2bfa7784-2e91-4f7a-a770-bfa1f3ddc819" componentID="Audition.Mute" id="clipMute" name="Mute" powered="true">
            <parameter index="0" parameterValue="0"/>
            <parameter index="1" name="mute" parameterValue="0"/>
          </component>
          <component componentGuid="e017e204-33dc-42b7-84d4-6e8b6cd0c1ae" componentID="Audition.StereoPanner" id="clipPan" name="StereoPanner" powered="true">
            <parameter index="0" name="Pan" parameterValue="0"/>
          </component>
          <fadeIn crossFadeLinkType="linkedAsymmetric" endPoint="0" shape="19" startPoint="0" type="log"/>
          <fadeOut crossFadeLinkType="linkedAsymmetric" endPoint="240000" shape="19" startPoint="240000" type="log"/>
          <editParameter parameterIndex="0" slotIndex="4294967280"/>
          <editParameter parameterIndex="0" slotIndex="4294967281"/>
          <channelMap>
            <channel index="0" sourceIndex="0"/>
            <channel index="1" sourceIndex="1"/>
          </channelMap>
        </audioClip>
        <audioClip clipAutoCrossfade="true" crossFadeHeadClipID="-1" crossFadeTailClipID="-1" endPoint="8400000" fileID="0" hue="-1" id="34" lockedInTime="false" looped="false" name="Laurent Garnier - Crispy Bacon" offline="false" select="false" sourceInPoint="8160000" sourceOutPoint="8400000" startPoint="8160000" zOrder="34">
          <component componentGuid="069d3d28-7fe2-4c38-ad81-cf223322b7c6" componentID="Audition.Fader" id="clipGain" name="volume" powered="true">
            <parameter index="0" name="volume" parameterValue="1"/>
            <parameter index="1" name="static gain" parameterValue="1"/>
          </component>
          <component componentGuid="66e046c6-3eaf-44f1-bc98-7259f5cccf08" componentID="Audition.Mute" id="clipMute" name="Mute" powered="true">
            <parameter index="0" parameterValue="0"/>
            <parameter index="1" name="mute" parameterValue="0"/>
          </component>
          <component componentGuid="bef9cc40-9596-4d09-b26c-83c01fb14638" componentID="Audition.StereoPanner" id="clipPan" name="StereoPanner" powered="true">
            <parameter index="0" name="Pan" parameterValue="0"/>
          </component>
          <fadeIn crossFadeLinkType="linkedAsymmetric" endPoint="0" shape="19" startPoint="0" type="log"/>
          <fadeOut crossFadeLinkType="linkedAsymmetric" endPoint="240000" shape="19" startPoint="240000" type="log"/>
          <editParameter parameterIndex="0" slotIndex="4294967280"/>
          <editParameter parameterIndex="0" slotIndex="4294967281"/>
          <channelMap>
            <channel index="0" sourceIndex="0"/>
            <channel index="1" sourceIndex="1"/>
          </channelMap>
        </audioClip>
        <audioClip clipAutoCrossfade="true" crossFadeHeadClipID="-1" crossFadeTailClipID="-1" endPoint="8640000" fileID="0" hue="-1" id="35" lockedInTime="false" looped="false" name="Laurent Garnier - Crispy Bacon" offline="false" select="false" sourceInPoint="8400000" sourceOutPoint="8640000" startPoint="8400000" zOrder="35">
          <component componentGuid="8a548a90-e28e-4351-b536-29699e40bef6" componentID="Audition.Fader" id="clipGain" name="volume" powered="true">
            <parameter index="0" name="volume" parameterValue="1"/>
            <parameter index="1" name="static gain" parameterValue="1"/>
          </component>
          <component componentGuid="9f4fed03-10be-4693-bac3-467677245afb" componentID="Audition.Mute" id="clipMute" name="Mute" powered="true">
            <parameter index="0" parameterValue="0"/>
            <parameter index="1" name="mute" parameterValue="0"/>
          </component>
          <component componentGuid="daa4f1ea-802e-4ead-8857-bc2dbdfb3650" componentID="Audition.StereoPanner" id="clipPan" name="StereoPanner" powered="true">
            <parameter index="0" name="Pan" parameterValue="0"/>
          </component>
          <fadeIn crossFadeLinkType="linkedAsymmetric" endPoint="0" shape="19" startPoint="0" type="log"/>
          <fadeOut crossFadeLinkType="linkedAsymmetric" endPoint="240000" shape="19" startPoint="240000" type="log"/>
          <editParameter parameterIndex="0" slotIndex="4294967280"/>
          <editParameter parameterIndex="0" slotIndex="4294967281"/>
          <channelMap>
            <channel index="0" sourceIndex="0"/>
            <channel index="1" sourceIndex="1"/>
          </channelMap>
        </audioClip>
        <audioClip clipAutoCrossfade="true" crossFadeHeadClipID="-1" crossFadeTailClipID="-1" endPoint="8880000" fileID="0" hue="-1" id="36" lockedInTime="false" looped="false" name="Laurent Garnier - Crispy Bacon" offline="false" select="false" sourceInPoint="8640000" sourceOutPoint="8880000" startPoint="8640000" zOrder="36">
          <component componentGuid="c9ad9434-d894-426b-aaf7-91bd7769f5f1" componentID="Audition.Fader" id="clipGain" name="volume" powered="true">
            <parameter index="0" name="volume" parameterValue="1"/>
            <parameter index="1" name="static gain" parameterValue="1"/>
          </component>
          <component componentGuid="960b73b9-e2cd-4896-871e-acf0349b5926" componentID="Audition.Mute" id="clipMute" name="Mute" powered="true">
            <parameter index="0" parameterValue="0"/>
            <parameter index="1" name="mute" parameterValue="0"/>
          </component>
          <component componentGuid="12e4d704-40aa-4891-b2dd-4f308352f327" componentID="Audition.StereoPanner" id="clipPan" name="StereoPanner" powered="true">
            <parameter index="0" name="Pan" parameterValue="0"/>
          </component>
          <fadeIn crossFadeLinkType="linkedAsymmetric" endPoint="0" shape="19" startPoint="0" type="log"/>
          <fadeOut crossFadeLinkType="linkedAsymmetric" endPoint="240000" shape="19" startPoint="240000" type="log"/>
          <editParameter parameterIndex="0" slotIndex="4294967280"/>
          <editParameter parameterIndex="0" slotIndex="4294967281"/>
          <channelMap>
            <channel index="0" sourceIndex="0"/>
            <channel index="1" sourceIndex="1"/>
          </channelMap>
        </audioClip>
        <audioClip clipAutoCrossfade="true" crossFadeHeadClipID="-1" crossFadeTailClipID="-1" endPoint="9120000" fileID="0" hue="-1" id="37" lockedInTime="false" looped="false" name="Laurent Garnier - Crispy Bacon" offline="false" select="false" sourceInPoint="8880000" sourceOutPoint="9120000" startPoint="8880000" zOrder="37">
          <component componentGuid="aeb68df9-8db7-430d-aefc-277a15fe767b" componentID="Audition.Fader" id="clipGain" name="volume" powered="true">
            <parameter index="0" name="volume" parameterValue="1"/>
            <parameter index="1" name="static gain" parameterValue="1"/>
          </component>
          <component componentGuid="1677ac6f-8e4e-4969-a5ac-ca37b2b799ce" componentID="Audition.Mute" id="clipMute" name="Mute" powered="true">
            <parameter index="0" parameterValue="0"/>
            <parameter index="1" name="mute" parameterValue="0"/>
          </component>
          <component componentGuid="c6ab8276-ac2e-4039-bb8d-13d99902b191" componentID="Audition.StereoPanner" id="clipPan" name="StereoPanner" powered="true">
            <parameter index="0" name="Pan" parameterValue="0"/>
          </component>
          <fadeIn crossFadeLinkType="linkedAsymmetric" endPoint="0" shape="19" startPoint="0" type="log"/>
          <fadeOut crossFadeLinkType="linkedAsymmetric" endPoint="240000" shape="19" startPoint="240000" type="log"/>
          <editParameter parameterIndex="0" slotIndex="4294967280"/>
          <editParameter parameterIndex="0" slotIndex="4294967281"/>
          <channelMap>
            <channel index="0" sourceIndex="0"/>
            <channel index="1" sourceIndex="1"/>
          </channelMap>
        </audioClip>
        <audioClip clipAutoCrossfade="true" crossFadeHeadClipID="-1" crossFadeTailClipID="-1" endPoint="9360000" fileID="0" hue="-1" id="38" lockedInTime="false" looped="false" name="Laurent Garnier - Crispy Bacon" offline="false" select="false" sourceInPoint="9120000" sourceOutPoint="9360000" startPoint="9120000" zOrder="38">
          <component componentGuid="4d962b86-c10b-44a6-b836-239b407a6b07" componentID="Audition.Fader" id="clipGain" name="volume" powered="true">
            <parameter index="0" name="volume" parameterValue="1"/>
            <parameter index="1" name="static gain" parameterValue="1"/>
          </component>
          <component componentGuid="72daf61b-dc91-4d15-8677-478c33ed1fe1" componentID="Audition.Mute" id="clipMute" name="Mute" powered="true">
            <parameter index="0" parameterValue="0"/>
            <parameter index="1" name="mute" parameterValue="0"/>
          </component>
          <component componentGuid="3cc4fbd5-69e7-4211-9d44-9f79af98d75e" componentID="Audition.StereoPanner" id="clipPan" name="StereoPanner" powered="true">
            <parameter index="0" name="Pan" parameterValue="0"/>
          </component>
          <fadeIn crossFadeLinkType="linkedAsymmetric" endPoint="0" shape="19" startPoint="0" type="log"/>
          <fadeOut crossFadeLinkType="linkedAsymmetric" endPoint="240000" shape="19" startPoint="240000" type="log"/>
          <editParameter parameterIndex="0" slotIndex="4294967280"/>
          <editParameter parameterIndex="0" slotIndex="4294967281"/>
          <channelMap>
            <channel index="0" sourceIndex="0"/>
            <channel index="1" sourceIndex="1"/>
          </channelMap>
        </audioClip>
        <audioClip clipAutoCrossfade="true" crossFadeHeadClipID="-1" crossFadeTailClipID="-1" endPoint="9600000" fileID="0" hue="-1" id="39" lockedInTime="false" looped="false" name="Laurent Garnier - Crispy Bacon" offline="false" select="false" sourceInPoint="9360000" sourceOutPoint="9600000" startPoint="9360000" zOrder="39">
          <component componentGuid="86ae20f1-2f28-4e77-8308-f9ce23aebab3" componentID="Audition.Fader" id="clipGain" name="volume" powered="true">
            <parameter index="0" name="volume" parameterValue="1"/>
            <parameter index="1" name="static gain" parameterValue="1"/>
          </component>
          <component componentGuid="84abc3a6-fa6e-4b61-a5be-079a22e0d12e" componentID="Audition.Mute" id="clipMute" name="Mute" powered="true">
            <parameter index="0" parameterValue="0"/>
            <parameter index="1" name="mute" parameterValue="0"/>
          </component>
          <component componentGuid="fc930852-8fd2-46cf-82b3-f43d1305595a" componentID="Audition.StereoPanner" id="clipPan" name="StereoPanner" powered="true">
            <parameter index="0" name="Pan" parameterValue="0"/>
          </component>
          <fadeIn crossFadeLinkType="linkedAsymmetric" endPoint="0" shape="19" startPoint="0" type="log"/>
          <fadeOut crossFadeLinkType="linkedAsymmetric" endPoint="240000" shape="19" startPoint="240000" type="log"/>
          <editParameter parameterIndex="0" slotIndex="4294967280"/>
          <editParameter parameterIndex="0" slotIndex="4294967281"/>
          <channelMap>
            <channel index="0" sourceIndex="0"/>
            <channel index="1" sourceIndex="1"/>
          </channelMap>
        </audioClip>
        <audioClip clipAutoCrossfade="true" crossFadeHeadClipID="-1" crossFadeTailClipID="-1" endPoint="9840000" fileID="0" hue="-1" id="40" lockedInTime="false" looped="false" name="Laurent Garnier - Crispy Bacon" offline="false" select="false" sourceInPoint="9600000" sourceOutPoint="9840000" startPoint="9600000" zOrder="40">
          <component componentGuid="53020e20-226d-4d60-9169-a796534ed065" componentID="Audition.Fader" id="clipGain" name="volume" powered="true">
            <parameter index="0" name="volume" parameterValue="1"/>
            <parameter index="1" name="static gain" parameterValue="1"/>
          </component>
          <component componentGuid="d3d02963-463f-454f-9f77-abd0d420fee9" componentID="Audition.Mute" id="clipMute" name="Mute" powered="true">
            <parameter index="0" parameterValue="0"/>
            <parameter index="1" name="mute" parameterValue="0"/>
          </component>
          <component componentGuid="987dad74-abdf-4384-a947-adbe0a57a967" componentID="Audition.StereoPanner" id="clipPan" name="StereoPanner" powered="true">
            <parameter index="0" name="Pan" parameterValue="0"/>
          </component>
          <fadeIn crossFadeLinkType="linkedAsymmetric" endPoint="0" shape="19" startPoint="0" type="log"/>
          <fadeOut crossFadeLinkType="linkedAsymmetric" endPoint="240000" shape="19" startPoint="240000" type="log"/>
          <editParameter parameterIndex="0" slotIndex="4294967280"/>
          <editParameter parameterIndex="0" slotIndex="4294967281"/>
          <channelMap>
            <channel index="0" sourceIndex="0"/>
            <channel index="1" sourceIndex="1"/>
          </channelMap>
        </audioClip>
        <audioClip clipAutoCrossfade="true" crossFadeHeadClipID="-1" crossFadeTailClipID="-1" endPoint="10080000" fileID="0" hue="-1" id="41" lockedInTime="false" looped="false" name="Laurent Garnier - Crispy Bacon" offline="false" select="false" sourceInPoint="9840000" sourceOutPoint="10080000" startPoint="9840000" zOrder="41">
          <component componentGuid="460cafd1-1c24-459e-8e83-ff020c5cf6ea" componentID="Audition.Fader" id="clipGain" name="volume" powered="true">
            <parameter index="0" name="volume" parameterValue="1"/>
            <parameter index="1" name="static gain" parameterValue="1"/>
          </component>
          <component componentGuid="0f7abd75-a2bc-4d03-9caf-d770273e104b" componentID="Audition.Mute" id="clipMute" name="Mute" powered="true">
            <parameter index="0" parameterValue="0"/>
            <parameter index="1" name="mute" parameterValue="0"/>
          </component>
          <component componentGuid="6b9483a6-f834-434b-a416-8f30ee7eaa6d" componentID="Audition.StereoPanner" id="clipPan" name="StereoPanner" powered="true">
            <parameter index="0" name="Pan" parameterValue="0"/>
          </component>
          <fadeIn crossFadeLinkType="linkedAsymmetric" endPoint="0" shape="19" startPoint="0" type="log"/>
          <fadeOut crossFadeLinkType="linkedAsymmetric" endPoint="240000" shape="19" startPoint="240000" type="log"/>
          <editParameter parameterIndex="0" slotIndex="4294967280"/>
          <editParameter parameterIndex="0" slotIndex="4294967281"/>
          <channelMap>
            <channel index="0" sourceIndex="0"/>
            <channel index="1" sourceIndex="1"/>
          </channelMap>
        </audioClip>
        <audioClip clipAutoCrossfade="true" crossFadeHeadClipID="-1" crossFadeTailClipID="-1" endPoint="10320000" fileID="0" hue="-1" id="42" lockedInTime="false" looped="false" name="Laurent Garnier - Crispy Bacon" offline="false" select="false" sourceInPoint="10080000" sourceOutPoint="10320000" startPoint="10080000" zOrder="42">
          <component componentGuid="2b5f35b8-c841-4246-a421-4699d4ca770c" componentID="Audition.Fader" id="clipGain" name="volume" powered="true">
            <parameter index="0" name="volume" parameterValue="1"/>
            <parameter index="1" name="static gain" parameterValue="1"/>
          </component>
          <component componentGuid="46a51745-3c4d-4a6a-a038-49c42b2a98c1" componentID="Audition.Mute" id="clipMute" name="Mute" powered="true">
            <parameter index="0" parameterValue="0"/>
            <parameter index="1" name="mute" parameterValue="0"/>
          </component>
          <component componentGuid="c7fa4111-eff2-4b76-af20-b72c5ad57bee" componentID="Audition.StereoPanner" id="clipPan" name="StereoPanner" powered="true">
            <parameter index="0" name="Pan" parameterValue="0"/>
          </component>
          <fadeIn crossFadeLinkType="linkedAsymmetric" endPoint="0" shape="19" startPoint="0" type="log"/>
          <fadeOut crossFadeLinkType="linkedAsymmetric" endPoint="240000" shape="19" startPoint="240000" type="log"/>
          <editParameter parameterIndex="0" slotIndex="4294967280"/>
          <editParameter parameterIndex="0" slotIndex="4294967281"/>
          <channelMap>
            <channel index="0" sourceIndex="0"/>
            <channel index="1" sourceIndex="1"/>
          </channelMap>
        </audioClip>
        <audioClip clipAutoCrossfade="true" crossFadeHeadClipID="-1" crossFadeTailClipID="-1" endPoint="10560000" fileID="0" hue="-1" id="43" lockedInTime="false" looped="false" name="Laurent Garnier - Crispy Bacon" offline="false" select="false" sourceInPoint="10320000" sourceOutPoint="10560000" startPoint="10320000" zOrder="43">
          <component componentGuid="d9a7aaa1-3ae3-4aa2-a38c-8d8217670b0d" componentID="Audition.Fader" id="clipGain" name="volume" powered="true">
            <parameter index="0" name="volume" parameterValue="1"/>
            <parameter index="1" name="static gain" parameterValue="1"/>
          </component>
          <component componentGuid="9cdb66ad-a909-48c8-a272-f4ae3cb83b79" componentID="Audition.Mute" id="clipMute" name="Mute" powered="true">
            <parameter index="0" parameterValue="0"/>
            <parameter index="1" name="mute" parameterValue="0"/>
          </component>
          <component componentGuid="cdc1ed49-5a7d-4270-925f-2a668b3e7034" componentID="Audition.StereoPanner" id="clipPan" name="StereoPanner" powered="true">
            <parameter index="0" name="Pan" parameterValue="0"/>
          </component>
          <fadeIn crossFadeLinkType="linkedAsymmetric" endPoint="0" shape="19" startPoint="0" type="log"/>
          <fadeOut crossFadeLinkType="linkedAsymmetric" endPoint="240000" shape="19" startPoint="240000" type="log"/>
          <editParameter parameterIndex="0" slotIndex="4294967280"/>
          <editParameter parameterIndex="0" slotIndex="4294967281"/>
          <channelMap>
            <channel index="0" sourceIndex="0"/>
            <channel index="1" sourceIndex="1"/>
          </channelMap>
        </audioClip>
        <audioClip clipAutoCrossfade="true" crossFadeHeadClipID="-1" crossFadeTailClipID="-1" endPoint="10800000" fileID="0" hue="-1" id="44" lockedInTime="false" looped="false" name="Laurent Garnier - Crispy Bacon" offline="false" select="false" sourceInPoint="10560000" sourceOutPoint="10800000" startPoint="10560000" zOrder="44">
          <component componentGuid="f53b36d4-7709-4a7c-83af-5b6723d3f162" componentID="Audition.Fader" id="clipGain" name="volume" powered="true">
            <parameter index="0" name="volume" parameterValue="1"/>
            <parameter index="1" name="static gain" parameterValue="1"/>
          </component>
          <component componentGuid="7e2c236d-57c1-4835-aa87-cc7dca80e3a4" componentID="Audition.Mute" id="clipMute" name="Mute" powered="true">
            <parameter index="0" parameterValue="0"/>
            <parameter index="1" name="mute" parameterValue="0"/>
          </component>
          <component componentGuid="4f1b1a92-d3c1-4510-8a91-12db66fdf4d2" componentID="Audition.StereoPanner" id="clipPan" name="StereoPanner" powered="true">
            <parameter index="0" name="Pan" parameterValue="0"/>
          </component>
          <fadeIn crossFadeLinkType="linkedAsymmetric" endPoint="0" shape="19" startPoint="0" type="log"/>
          <fadeOut crossFadeLinkType="linkedAsymmetric" endPoint="240000" shape="19" startPoint="240000" type="log"/>
          <editParameter parameterIndex="0" slotIndex="4294967280"/>
          <editParameter parameterIndex="0" slotIndex="4294967281"/>
          <channelMap>
            <channel index="0" sourceIndex="0"/>
            <channel index="1" sourceIndex="1"/>
          </channelMap>
        </audioClip>
        <audioClip clipAutoCrossfade="true" crossFadeHeadClipID="-1" crossFadeTailClipID="-1" endPoint="11040000" fileID="0" hue="-1" id="45" lockedInTime="false" looped="false" name="Laurent Garnier - Crispy Bacon" offline="false" select="false" sourceInPoint="10800000" sourceOutPoint="11040000" startPoint="10800000" zOrder="45">
          <component componentGuid="1ec146e9-b200-4117-abeb-d77ca181e743" componentID="Audition.Fader" id="clipGain" name="volume" powered="true">
            <parameter index="0" name="volume" parameterValue="1"/>
            <parameter index="1" name="static gain" parameterValue="1"/>
          </component>
          <component componentGuid="4c1c6033-d041-4824-8242-41aab1284618" componentID="Audition.Mute" id="clipMute" name="Mute" powered="true">
            <parameter index="0" parameterValue="0"/>
            <parameter index="1" name="mute" parameterValue="0"/>
          </component>
          <component componentGuid="2bc81155-ad0d-451f-ad96-3ab37e6396c1" componentID="Audition.StereoPanner" id="clipPan" name="StereoPanner" powered="true">
            <parameter index="0" name="Pan" parameterValue="0"/>
          </component>
          <fadeIn crossFadeLinkType="linkedAsymmetric" endPoint="0" shape="19" startPoint="0" type="log"/>
          <fadeOut crossFadeLinkType="linkedAsymmetric" endPoint="240000" shape="19" startPoint="240000" type="log"/>
          <editParameter parameterIndex="0" slotIndex="4294967280"/>
          <editParameter parameterIndex="0" slotIndex="4294967281"/>
          <channelMap>
            <channel index="0" sourceIndex="0"/>
            <channel index="1" sourceIndex="1"/>
          </channelMap>
        </audioClip>
        <audioClip clipAutoCrossfade="true" crossFadeHeadClipID="-1" crossFadeTailClipID="-1" endPoint="11280000" fileID="0" hue="-1" id="46" lockedInTime="false" looped="false" name="Laurent Garnier - Crispy Bacon" offline="false" select="false" sourceInPoint="11040000" sourceOutPoint="11280000" startPoint="11040000" zOrder="46">
          <component componentGuid="f5b56520-4a18-4d10-8dfc-0a71389a4f26" componentID="Audition.Fader" id="clipGain" name="volume" powered="true">
            <parameter index="0" name="volume" parameterValue="1"/>
            <parameter index="1" name="static gain" parameterValue="1"/>
          </component>
          <component componentGuid="5fe75e4a-90d2-4d88-949f-9ff94cd73788" componentID="Audition.Mute" id="clipMute" name="Mute" powered="true">
            <parameter index="0" parameterValue="0"/>
            <parameter index="1" name="mute" parameterValue="0"/>
          </component>
          <component componentGuid="44d333ce-b5fa-42ef-b008-6847fa962413" componentID="Audition.StereoPanner" id="clipPan" name="StereoPanner" powered="true">
            <parameter index="0" name="Pan" parameterValue="0"/>
          </component>
          <fadeIn crossFadeLinkType="linkedAsymmetric" endPoint="0" shape="19" startPoint="0" type="log"/>
          <fadeOut crossFadeLinkType="linkedAsymmetric" endPoint="240000" shape="19" startPoint="240000" type="log"/>
          <editParameter parameterIndex="0" slotIndex="4294967280"/>
          <editParameter parameterIndex="0" slotIndex="4294967281"/>
          <channelMap>
            <channel index="0" sourceIndex="0"/>
            <channel index="1" sourceIndex="1"/>
          </channelMap>
        </audioClip>
        <audioClip clipAutoCrossfade="true" crossFadeHeadClipID="-1" crossFadeTailClipID="-1" endPoint="11520000" fileID="0" hue="-1" id="47" lockedInTime="false" looped="false" name="Laurent Garnier - Crispy Bacon" offline="false" select="false" sourceInPoint="11280000" sourceOutPoint="11520000" startPoint="11280000" zOrder="47">
          <component componentGuid="9204812d-bcc9-412a-8f10-d4751d9d9c70" componentID="Audition.Fader" id="clipGain" name="volume" powered="true">
            <parameter index="0" name="volume" parameterValue="1"/>
            <parameter index="1" name="static gain" parameterValue="1"/>
          </component>
          <component componentGuid="02eaf3eb-650c-49e7-af01-b14f01ac4af1" componentID="Audition.Mute" id="clipMute" name="Mute" powered="true">
            <parameter index="0" parameterValue="0"/>
            <parameter index="1" name="mute" parameterValue="0"/>
          </component>
          <component componentGuid="247422d9-d13e-41f7-b1f7-34c6eceb89c1" componentID="Audition.StereoPanner" id="clipPan" name="StereoPanner" powered="true">
            <parameter index="0" name="Pan" parameterValue="0"/>
          </component>
          <fadeIn crossFadeLinkType="linkedAsymmetric" endPoint="0" shape="19" startPoint="0" type="log"/>
          <fadeOut crossFadeLinkType="linkedAsymmetric" endPoint="240000" shape="19" startPoint="240000" type="log"/>
          <editParameter parameterIndex="0" slotIndex="4294967280"/>
          <editParameter parameterIndex="0" slotIndex="4294967281"/>
          <channelMap>
            <channel index="0" sourceIndex="0"/>
            <channel index="1" sourceIndex="1"/>
          </channelMap>
        </audioClip>
        <audioClip clipAutoCrossfade="true" crossFadeHeadClipID="-1" crossFadeTailClipID="-1" endPoint="11760000" fileID="0" hue="-1" id="48" lockedInTime="false" looped="false" name="Laurent Garnier - Crispy Bacon" offline="false" select="false" sourceInPoint="11520000" sourceOutPoint="11760000" startPoint="11520000" zOrder="48">
          <component componentGuid="d4bfa54d-a0f8-43d7-966e-d4893fc7db52" componentID="Audition.Fader" id="clipGain" name="volume" powered="true">
            <parameter index="0" name="volume" parameterValue="1"/>
            <parameter index="1" name="static gain" parameterValue="1"/>
          </component>
          <component componentGuid="b4263771-b346-45a2-8294-7cd32e4aa37b" componentID="Audition.Mute" id="clipMute" name="Mute" powered="true">
            <parameter index="0" parameterValue="0"/>
            <parameter index="1" name="mute" parameterValue="0"/>
          </component>
          <component componentGuid="4ad05ac4-91d1-4a97-b1ee-2897e641a316" componentID="Audition.StereoPanner" id="clipPan" name="StereoPanner" powered="true">
            <parameter index="0" name="Pan" parameterValue="0"/>
          </component>
          <fadeIn crossFadeLinkType="linkedAsymmetric" endPoint="0" shape="19" startPoint="0" type="log"/>
          <fadeOut crossFadeLinkType="linkedAsymmetric" endPoint="240000" shape="19" startPoint="240000" type="log"/>
          <editParameter parameterIndex="0" slotIndex="4294967280"/>
          <editParameter parameterIndex="0" slotIndex="4294967281"/>
          <channelMap>
            <channel index="0" sourceIndex="0"/>
            <channel index="1" sourceIndex="1"/>
          </channelMap>
        </audioClip>
        <audioClip clipAutoCrossfade="true" crossFadeHeadClipID="-1" crossFadeTailClipID="-1" endPoint="12000000" fileID="0" hue="-1" id="49" lockedInTime="false" looped="false" name="Laurent Garnier - Crispy Bacon" offline="false" select="false" sourceInPoint="11760000" sourceOutPoint="12000000" startPoint="11760000" zOrder="49">
          <component componentGuid="af03b2da-8550-4cc5-b51b-02bf593779e5" componentID="Audition.Fader" id="clipGain" name="volume" powered="true">
            <parameter index="0" name="volume" parameterValue="1"/>
            <parameter index="1" name="static gain" parameterValue="1"/>
          </component>
          <component componentGuid="4c1a054b-0531-4de2-93a9-396da562206c" componentID="Audition.Mute" id="clipMute" name="Mute" powered="true">
            <parameter index="0" parameterValue="0"/>
            <parameter index="1" name="mute" parameterValue="0"/>
          </component>
          <component componentGuid="fc0df875-4cfd-4b79-b493-02e2fb63b74b" componentID="Audition.StereoPanner" id="clipPan" name="StereoPanner" powered="true">
            <parameter index="0" name="Pan" parameterValue="0"/>
          </component>
          <fadeIn crossFadeLinkType="linkedAsymmetric" endPoint="0" shape="19" startPoint="0" type="log"/>
          <fadeOut crossFadeLinkType="linkedAsymmetric" endPoint="240000" shape="19" startPoint="240000" type="log"/>
          <editParameter parameterIndex="0" slotIndex="4294967280"/>
          <editParameter parameterIndex="0" slotIndex="4294967281"/>
          <channelMap>
            <channel index="0" sourceIndex="0"/>
            <channel index="1" sourceIndex="1"/>
          </channelMap>
        </audioClip>
        <audioClip clipAutoCrossfade="true" crossFadeHeadClipID="-1" crossFadeTailClipID="-1" endPoint="12240000" fileID="0" hue="-1" id="50" lockedInTime="false" looped="false" name="Laurent Garnier - Crispy Bacon" offline="false" select="false" sourceInPoint="12000000" sourceOutPoint="12240000" startPoint="12000000" zOrder="50">
          <component componentGuid="30cae8ac-05d1-4483-82f5-b31527562758" componentID="Audition.Fader" id="clipGain" name="volume" powered="true">
            <parameter index="0" name="volume" parameterValue="1"/>
            <parameter index="1" name="static gain" parameterValue="1"/>
          </component>
          <component componentGuid="0c8cf547-bf10-4b12-961d-ff7f75e8ee22" componentID="Audition.Mute" id="clipMute" name="Mute" powered="true">
            <parameter index="0" parameterValue="0"/>
            <parameter index="1" name="mute" parameterValue="0"/>
          </component>
          <component componentGuid="8b6541ed-e25a-4a4f-9f89-388ee17e4ced" componentID="Audition.StereoPanner" id="clipPan" name="StereoPanner" powered="true">
            <parameter index="0" name="Pan" parameterValue="0"/>
          </component>
          <fadeIn crossFadeLinkType="linkedAsymmetric" endPoint="0" shape="19" startPoint="0" type="log"/>
          <fadeOut crossFadeLinkType="linkedAsymmetric" endPoint="240000" shape="19" startPoint="240000" type="log"/>
          <editParameter parameterIndex="0" slotIndex="4294967280"/>
          <editParameter parameterIndex="0" slotIndex="4294967281"/>
          <channelMap>
            <channel index="0" sourceIndex="0"/>
            <channel index="1" sourceIndex="1"/>
          </channelMap>
        </audioClip>
        <audioClip clipAutoCrossfade="true" crossFadeHeadClipID="-1" crossFadeTailClipID="-1" endPoint="12480000" fileID="0" hue="-1" id="51" lockedInTime="false" looped="false" name="Laurent Garnier - Crispy Bacon" offline="false" select="false" sourceInPoint="12240000" sourceOutPoint="12480000" startPoint="12240000" zOrder="51">
          <component componentGuid="68160f24-3fe7-4072-a7e5-ad726ce1ceff" componentID="Audition.Fader" id="clipGain" name="volume" powered="true">
            <parameter index="0" name="volume" parameterValue="1"/>
            <parameter index="1" name="static gain" parameterValue="1"/>
          </component>
          <component componentGuid="44cc7fef-bd5c-4a62-890c-2dc72a506c92" componentID="Audition.Mute" id="clipMute" name="Mute" powered="true">
            <parameter index="0" parameterValue="0"/>
            <parameter index="1" name="mute" parameterValue="0"/>
          </component>
          <component componentGuid="8b7728d1-b451-4366-b609-d8bce7b4759e" componentID="Audition.StereoPanner" id="clipPan" name="StereoPanner" powered="true">
            <parameter index="0" name="Pan" parameterValue="0"/>
          </component>
          <fadeIn crossFadeLinkType="linkedAsymmetric" endPoint="0" shape="19" startPoint="0" type="log"/>
          <fadeOut crossFadeLinkType="linkedAsymmetric" endPoint="240000" shape="19" startPoint="240000" type="log"/>
          <editParameter parameterIndex="0" slotIndex="4294967280"/>
          <editParameter parameterIndex="0" slotIndex="4294967281"/>
          <channelMap>
            <channel index="0" sourceIndex="0"/>
            <channel index="1" sourceIndex="1"/>
          </channelMap>
        </audioClip>
        <audioClip clipAutoCrossfade="true" crossFadeHeadClipID="-1" crossFadeTailClipID="-1" endPoint="12720000" fileID="0" hue="-1" id="52" lockedInTime="false" looped="false" name="Laurent Garnier - Crispy Bacon" offline="false" select="false" sourceInPoint="12480000" sourceOutPoint="12720000" startPoint="12480000" zOrder="52">
          <component componentGuid="e050279e-50bd-43ec-966d-606e5654755f" componentID="Audition.Fader" id="clipGain" name="volume" powered="true">
            <parameter index="0" name="volume" parameterValue="1"/>
            <parameter index="1" name="static gain" parameterValue="1"/>
          </component>
          <component componentGuid="036dffdf-495d-42d1-a9c7-d316b974b97c" componentID="Audition.Mute" id="clipMute" name="Mute" powered="true">
            <parameter index="0" parameterValue="0"/>
            <parameter index="1" name="mute" parameterValue="0"/>
          </component>
          <component componentGuid="a79b5f46-5ca6-4b50-9263-86aa8dd502aa" componentID="Audition.StereoPanner" id="clipPan" name="StereoPanner" powered="true">
            <parameter index="0" name="Pan" parameterValue="0"/>
          </component>
          <fadeIn crossFadeLinkType="linkedAsymmetric" endPoint="0" shape="19" startPoint="0" type="log"/>
          <fadeOut crossFadeLinkType="linkedAsymmetric" endPoint="240000" shape="19" startPoint="240000" type="log"/>
          <editParameter parameterIndex="0" slotIndex="4294967280"/>
          <editParameter parameterIndex="0" slotIndex="4294967281"/>
          <channelMap>
            <channel index="0" sourceIndex="0"/>
            <channel index="1" sourceIndex="1"/>
          </channelMap>
        </audioClip>
        <audioClip clipAutoCrossfade="true" crossFadeHeadClipID="-1" crossFadeTailClipID="-1" endPoint="12960000" fileID="0" hue="-1" id="53" lockedInTime="false" looped="false" name="Laurent Garnier - Crispy Bacon" offline="false" select="false" sourceInPoint="12720000" sourceOutPoint="12960000" startPoint="12720000" zOrder="53">
          <component componentGuid="73716b94-434a-41f2-9b86-59276c7b2c73" componentID="Audition.Fader" id="clipGain" name="volume" powered="true">
            <parameter index="0" name="volume" parameterValue="1"/>
            <parameter index="1" name="static gain" parameterValue="1"/>
          </component>
          <component componentGuid="feba00fe-84a9-4f5d-b935-df5d6120fe3b" componentID="Audition.Mute" id="clipMute" name="Mute" powered="true">
            <parameter index="0" parameterValue="0"/>
            <parameter index="1" name="mute" parameterValue="0"/>
          </component>
          <component componentGuid="759527e0-230c-463a-b79a-957913f1188b" componentID="Audition.StereoPanner" id="clipPan" name="StereoPanner" powered="true">
            <parameter index="0" name="Pan" parameterValue="0"/>
          </component>
          <fadeIn crossFadeLinkType="linkedAsymmetric" endPoint="0" shape="19" startPoint="0" type="log"/>
          <fadeOut crossFadeLinkType="linkedAsymmetric" endPoint="240000" shape="19" startPoint="240000" type="log"/>
          <editParameter parameterIndex="0" slotIndex="4294967280"/>
          <editParameter parameterIndex="0" slotIndex="4294967281"/>
          <channelMap>
            <channel index="0" sourceIndex="0"/>
            <channel index="1" sourceIndex="1"/>
          </channelMap>
        </audioClip>
        <audioClip clipAutoCrossfade="true" crossFadeHeadClipID="-1" crossFadeTailClipID="-1" endPoint="13200000" fileID="0" hue="-1" id="54" lockedInTime="false" looped="false" name="Laurent Garnier - Crispy Bacon" offline="false" select="false" sourceInPoint="12960000" sourceOutPoint="13200000" startPoint="12960000" zOrder="54">
          <component componentGuid="7f4cbc52-93bc-4320-beb2-398d5a4f773a" componentID="Audition.Fader" id="clipGain" name="volume" powered="true">
            <parameter index="0" name="volume" parameterValue="1"/>
            <parameter index="1" name="static gain" parameterValue="1"/>
          </component>
          <component componentGuid="591a690c-b384-4ff4-955c-ba8521f29f57" componentID="Audition.Mute" id="clipMute" name="Mute" powered="true">
            <parameter index="0" parameterValue="0"/>
            <parameter index="1" name="mute" parameterValue="0"/>
          </component>
          <component componentGuid="342f8725-d7ba-4cc6-8512-90b696bbd392" componentID="Audition.StereoPanner" id="clipPan" name="StereoPanner" powered="true">
            <parameter index="0" name="Pan" parameterValue="0"/>
          </component>
          <fadeIn crossFadeLinkType="linkedAsymmetric" endPoint="0" shape="19" startPoint="0" type="log"/>
          <fadeOut crossFadeLinkType="linkedAsymmetric" endPoint="240000" shape="19" startPoint="240000" type="log"/>
          <editParameter parameterIndex="0" slotIndex="4294967280"/>
          <editParameter parameterIndex="0" slotIndex="4294967281"/>
          <channelMap>
            <channel index="0" sourceIndex="0"/>
            <channel index="1" sourceIndex="1"/>
          </channelMap>
        </audioClip>
        <audioClip clipAutoCrossfade="true" crossFadeHeadClipID="-1" crossFadeTailClipID="-1" endPoint="13440000" fileID="0" hue="-1" id="55" lockedInTime="false" looped="false" name="Laurent Garnier - Crispy Bacon" offline="false" select="false" sourceInPoint="13200000" sourceOutPoint="13440000" startPoint="13200000" zOrder="55">
          <component componentGuid="263014cb-86e6-41d8-ab2c-e5d66e521dd2" componentID="Audition.Fader" id="clipGain" name="volume" powered="true">
            <parameter index="0" name="volume" parameterValue="1"/>
            <parameter index="1" name="static gain" parameterValue="1"/>
          </component>
          <component componentGuid="2f8e791c-a480-48b2-b6e2-d32e2066b536" componentID="Audition.Mute" id="clipMute" name="Mute" powered="true">
            <parameter index="0" parameterValue="0"/>
            <parameter index="1" name="mute" parameterValue="0"/>
          </component>
          <component componentGuid="17fa3d1b-af60-4e13-838e-e9b98ca117ea" componentID="Audition.StereoPanner" id="clipPan" name="StereoPanner" powered="true">
            <parameter index="0" name="Pan" parameterValue="0"/>
          </component>
          <fadeIn crossFadeLinkType="linkedAsymmetric" endPoint="0" shape="19" startPoint="0" type="log"/>
          <fadeOut crossFadeLinkType="linkedAsymmetric" endPoint="240000" shape="19" startPoint="240000" type="log"/>
          <editParameter parameterIndex="0" slotIndex="4294967280"/>
          <editParameter parameterIndex="0" slotIndex="4294967281"/>
          <channelMap>
            <channel index="0" sourceIndex="0"/>
            <channel index="1" sourceIndex="1"/>
          </channelMap>
        </audioClip>
        <audioClip clipAutoCrossfade="true" crossFadeHeadClipID="-1" crossFadeTailClipID="-1" endPoint="13680000" fileID="0" hue="-1" id="56" lockedInTime="false" looped="false" name="Laurent Garnier - Crispy Bacon" offline="false" select="false" sourceInPoint="13440000" sourceOutPoint="13680000" startPoint="13440000" zOrder="56">
          <component componentGuid="9e73a6b9-b7e6-4426-848a-448f1bb7858e" componentID="Audition.Fader" id="clipGain" name="volume" powered="true">
            <parameter index="0" name="volume" parameterValue="1"/>
            <parameter index="1" name="static gain" parameterValue="1"/>
          </component>
          <component componentGuid="dfbe5fdb-33b5-42fb-96ed-9b16264e1727" componentID="Audition.Mute" id="clipMute" name="Mute" powered="true">
            <parameter index="0" parameterValue="0"/>
            <parameter index="1" name="mute" parameterValue="0"/>
          </component>
          <component componentGuid="337f55ef-b8cd-49d1-b80f-2ded095df5e6" componentID="Audition.StereoPanner" id="clipPan" name="StereoPanner" powered="true">
            <parameter index="0" name="Pan" parameterValue="0"/>
          </component>
          <fadeIn crossFadeLinkType="linkedAsymmetric" endPoint="0" shape="19" startPoint="0" type="log"/>
          <fadeOut crossFadeLinkType="linkedAsymmetric" endPoint="240000" shape="19" startPoint="240000" type="log"/>
          <editParameter parameterIndex="0" slotIndex="4294967280"/>
          <editParameter parameterIndex="0" slotIndex="4294967281"/>
          <channelMap>
            <channel index="0" sourceIndex="0"/>
            <channel index="1" sourceIndex="1"/>
          </channelMap>
        </audioClip>
        <audioClip clipAutoCrossfade="true" crossFadeHeadClipID="-1" crossFadeTailClipID="-1" endPoint="13920000" fileID="0" hue="-1" id="57" lockedInTime="false" looped="false" name="Laurent Garnier - Crispy Bacon" offline="false" select="false" sourceInPoint="13680000" sourceOutPoint="13920000" startPoint="13680000" zOrder="57">
          <component componentGuid="f20f1e8e-648a-4945-b52f-36f386d00147" componentID="Audition.Fader" id="clipGain" name="volume" powered="true">
            <parameter index="0" name="volume" parameterValue="1"/>
            <parameter index="1" name="static gain" parameterValue="1"/>
          </component>
          <component componentGuid="5aefd83e-de00-410f-a3fc-2cfb24f51003" componentID="Audition.Mute" id="clipMute" name="Mute" powered="true">
            <parameter index="0" parameterValue="0"/>
            <parameter index="1" name="mute" parameterValue="0"/>
          </component>
          <component componentGuid="507186ae-e002-4596-8f06-f86d7b3a921f" componentID="Audition.StereoPanner" id="clipPan" name="StereoPanner" powered="true">
            <parameter index="0" name="Pan" parameterValue="0"/>
          </component>
          <fadeIn crossFadeLinkType="linkedAsymmetric" endPoint="0" shape="19" startPoint="0" type="log"/>
          <fadeOut crossFadeLinkType="linkedAsymmetric" endPoint="240000" shape="19" startPoint="240000" type="log"/>
          <editParameter parameterIndex="0" slotIndex="4294967280"/>
          <editParameter parameterIndex="0" slotIndex="4294967281"/>
          <channelMap>
            <channel index="0" sourceIndex="0"/>
            <channel index="1" sourceIndex="1"/>
          </channelMap>
        </audioClip>
        <audioClip clipAutoCrossfade="true" crossFadeHeadClipID="-1" crossFadeTailClipID="-1" endPoint="14160000" fileID="0" hue="-1" id="58" lockedInTime="false" looped="false" name="Laurent Garnier - Crispy Bacon" offline="false" select="false" sourceInPoint="13920000" sourceOutPoint="14160000" startPoint="13920000" zOrder="58">
          <component componentGuid="12ef9a4c-adda-4340-98bc-41594a4aa30f" componentID="Audition.Fader" id="clipGain" name="volume" powered="true">
            <parameter index="0" name="volume" parameterValue="1"/>
            <parameter index="1" name="static gain" parameterValue="1"/>
          </component>
          <component componentGuid="d84ccdb5-1959-4261-a6e9-b9928d2ddbac" componentID="Audition.Mute" id="clipMute" name="Mute" powered="true">
            <parameter index="0" parameterValue="0"/>
            <parameter index="1" name="mute" parameterValue="0"/>
          </component>
          <component componentGuid="813c9061-7f98-452a-a51d-9cda68cb4ffc" componentID="Audition.StereoPanner" id="clipPan" name="StereoPanner" powered="true">
            <parameter index="0" name="Pan" parameterValue="0"/>
          </component>
          <fadeIn crossFadeLinkType="linkedAsymmetric" endPoint="0" shape="19" startPoint="0" type="log"/>
          <fadeOut crossFadeLinkType="linkedAsymmetric" endPoint="240000" shape="19" startPoint="240000" type="log"/>
          <editParameter parameterIndex="0" slotIndex="4294967280"/>
          <editParameter parameterIndex="0" slotIndex="4294967281"/>
          <channelMap>
            <channel index="0" sourceIndex="0"/>
            <channel index="1" sourceIndex="1"/>
          </channelMap>
        </audioClip>
        <audioClip clipAutoCrossfade="true" crossFadeHeadClipID="-1" crossFadeTailClipID="-1" endPoint="14400000" fileID="0" hue="-1" id="59" lockedInTime="false" looped="false" name="Laurent Garnier - Crispy Bacon" offline="false" select="false" sourceInPoint="14160000" sourceOutPoint="14400000" startPoint="14160000" zOrder="59">
          <component componentGuid="373a766b-e9f5-4ae5-ae66-58a01cc80d07" componentID="Audition.Fader" id="clipGain" name="volume" powered="true">
            <parameter index="0" name="volume" parameterValue="1"/>
            <parameter index="1" name="static gain" parameterValue="1"/>
          </component>
          <component componentGuid="e295d487-2964-40a0-8a9b-464457f3f002" componentID="Audition.Mute" id="clipMute" name="Mute" powered="true">
            <parameter index="0" parameterValue="0"/>
            <parameter index="1" name="mute" parameterValue="0"/>
          </component>
          <component componentGuid="5d0ca00c-2988-44f9-bc6a-27fd7e6d04df" componentID="Audition.StereoPanner" id="clipPan" name="StereoPanner" powered="true">
            <parameter index="0" name="Pan" parameterValue="0"/>
          </component>
          <fadeIn crossFadeLinkType="linkedAsymmetric" endPoint="0" shape="19" startPoint="0" type="log"/>
          <fadeOut crossFadeLinkType="linkedAsymmetric" endPoint="240000" shape="19" startPoint="240000" type="log"/>
          <editParameter parameterIndex="0" slotIndex="4294967280"/>
          <editParameter parameterIndex="0" slotIndex="4294967281"/>
          <channelMap>
            <channel index="0" sourceIndex="0"/>
            <channel index="1" sourceIndex="1"/>
          </channelMap>
        </audioClip>
        <audioClip clipAutoCrossfade="true" crossFadeHeadClipID="-1" crossFadeTailClipID="-1" endPoint="14640000" fileID="0" hue="-1" id="60" lockedInTime="false" looped="false" name="Laurent Garnier - Crispy Bacon" offline="false" select="false" sourceInPoint="14400000" sourceOutPoint="14640000" startPoint="14400000" zOrder="60">
          <component componentGuid="3ecc8591-06f4-4675-98ba-5e587814cd42" componentID="Audition.Fader" id="clipGain" name="volume" powered="true">
            <parameter index="0" name="volume" parameterValue="1"/>
            <parameter index="1" name="static gain" parameterValue="1"/>
          </component>
          <component componentGuid="e6070ca4-ae94-4e06-bbf2-3a1e312bef2d" componentID="Audition.Mute" id="clipMute" name="Mute" powered="true">
            <parameter index="0" parameterValue="0"/>
            <parameter index="1" name="mute" parameterValue="0"/>
          </component>
          <component componentGuid="690e2439-e910-455c-b10e-91de8b6db7eb" componentID="Audition.StereoPanner" id="clipPan" name="StereoPanner" powered="true">
            <parameter index="0" name="Pan" parameterValue="0"/>
          </component>
          <fadeIn crossFadeLinkType="linkedAsymmetric" endPoint="0" shape="19" startPoint="0" type="log"/>
          <fadeOut crossFadeLinkType="linkedAsymmetric" endPoint="240000" shape="19" startPoint="240000" type="log"/>
          <editParameter parameterIndex="0" slotIndex="4294967280"/>
          <editParameter parameterIndex="0" slotIndex="4294967281"/>
          <channelMap>
            <channel index="0" sourceIndex="0"/>
            <channel index="1" sourceIndex="1"/>
          </channelMap>
        </audioClip>
        <audioClip clipAutoCrossfade="true" crossFadeHeadClipID="-1" crossFadeTailClipID="-1" endPoint="14880000" fileID="0" hue="-1" id="61" lockedInTime="false" looped="false" name="Laurent Garnier - Crispy Bacon" offline="false" select="false" sourceInPoint="14640000" sourceOutPoint="14880000" startPoint="14640000" zOrder="61">
          <component componentGuid="b78e19c1-bd67-4ec5-b514-d6364c4a98bd" componentID="Audition.Fader" id="clipGain" name="volume" powered="true">
            <parameter index="0" name="volume" parameterValue="1"/>
            <parameter index="1" name="static gain" parameterValue="1"/>
          </component>
          <component componentGuid="103939d2-73ce-4420-9d8a-e110b13570cb" componentID="Audition.Mute" id="clipMute" name="Mute" powered="true">
            <parameter index="0" parameterValue="0"/>
            <parameter index="1" name="mute" parameterValue="0"/>
          </component>
          <component componentGuid="1589891a-5ae2-4cbe-9017-4e0e1cf53527" componentID="Audition.StereoPanner" id="clipPan" name="StereoPanner" powered="true">
            <parameter index="0" name="Pan" parameterValue="0"/>
          </component>
          <fadeIn crossFadeLinkType="linkedAsymmetric" endPoint="0" shape="19" startPoint="0" type="log"/>
          <fadeOut crossFadeLinkType="linkedAsymmetric" endPoint="240000" shape="19" startPoint="240000" type="log"/>
          <editParameter parameterIndex="0" slotIndex="4294967280"/>
          <editParameter parameterIndex="0" slotIndex="4294967281"/>
          <channelMap>
            <channel index="0" sourceIndex="0"/>
            <channel index="1" sourceIndex="1"/>
          </channelMap>
        </audioClip>
        <audioClip clipAutoCrossfade="true" crossFadeHeadClipID="-1" crossFadeTailClipID="-1" endPoint="15120000" fileID="0" hue="-1" id="62" lockedInTime="false" looped="false" name="Laurent Garnier - Crispy Bacon" offline="false" select="false" sourceInPoint="14880000" sourceOutPoint="15120000" startPoint="14880000" zOrder="62">
          <component componentGuid="ab9c0b68-b3d8-4807-8d07-0fe88cc2406b" componentID="Audition.Fader" id="clipGain" name="volume" powered="true">
            <parameter index="0" name="volume" parameterValue="1"/>
            <parameter index="1" name="static gain" parameterValue="1"/>
          </component>
          <component componentGuid="f38ad6be-9bc2-4987-b102-a2519c048145" componentID="Audition.Mute" id="clipMute" name="Mute" powered="true">
            <parameter index="0" parameterValue="0"/>
            <parameter index="1" name="mute" parameterValue="0"/>
          </component>
          <component componentGuid="676448dc-d3ca-4ef7-a329-4dd5b245a75b" componentID="Audition.StereoPanner" id="clipPan" name="StereoPanner" powered="true">
            <parameter index="0" name="Pan" parameterValue="0"/>
          </component>
          <fadeIn crossFadeLinkType="linkedAsymmetric" endPoint="0" shape="19" startPoint="0" type="log"/>
          <fadeOut crossFadeLinkType="linkedAsymmetric" endPoint="240000" shape="19" startPoint="240000" type="log"/>
          <editParameter parameterIndex="0" slotIndex="4294967280"/>
          <editParameter parameterIndex="0" slotIndex="4294967281"/>
          <channelMap>
            <channel index="0" sourceIndex="0"/>
            <channel index="1" sourceIndex="1"/>
          </channelMap>
        </audioClip>
        <audioClip clipAutoCrossfade="true" crossFadeHeadClipID="-1" crossFadeTailClipID="-1" endPoint="15360000" fileID="0" hue="-1" id="63" lockedInTime="false" looped="false" name="Laurent Garnier - Crispy Bacon" offline="false" select="false" sourceInPoint="15120000" sourceOutPoint="15360000" startPoint="15120000" zOrder="63">
          <component componentGuid="3705c7c8-263a-4b46-b912-b0d5825df35e" componentID="Audition.Fader" id="clipGain" name="volume" powered="true">
            <parameter index="0" name="volume" parameterValue="1"/>
            <parameter index="1" name="static gain" parameterValue="1"/>
          </component>
          <component componentGuid="522bf872-2758-4125-a8a6-817f2d4d83c2" componentID="Audition.Mute" id="clipMute" name="Mute" powered="true">
            <parameter index="0" parameterValue="0"/>
            <parameter index="1" name="mute" parameterValue="0"/>
          </component>
          <component componentGuid="fdef2418-0652-4c16-b8ae-d2d57307d33a" componentID="Audition.StereoPanner" id="clipPan" name="StereoPanner" powered="true">
            <parameter index="0" name="Pan" parameterValue="0"/>
          </component>
          <fadeIn crossFadeLinkType="linkedAsymmetric" endPoint="0" shape="19" startPoint="0" type="log"/>
          <fadeOut crossFadeLinkType="linkedAsymmetric" endPoint="240000" shape="19" startPoint="240000" type="log"/>
          <editParameter parameterIndex="0" slotIndex="4294967280"/>
          <editParameter parameterIndex="0" slotIndex="4294967281"/>
          <channelMap>
            <channel index="0" sourceIndex="0"/>
            <channel index="1" sourceIndex="1"/>
          </channelMap>
        </audioClip>
        <audioClip clipAutoCrossfade="true" crossFadeHeadClipID="-1" crossFadeTailClipID="-1" endPoint="15600000" fileID="0" hue="-1" id="64" lockedInTime="false" looped="false" name="Laurent Garnier - Crispy Bacon" offline="false" select="false" sourceInPoint="15360000" sourceOutPoint="15600000" startPoint="15360000" zOrder="64">
          <component componentGuid="20628689-7ac9-4182-a20a-fdfcb845204c" componentID="Audition.Fader" id="clipGain" name="volume" powered="true">
            <parameter index="0" name="volume" parameterValue="1"/>
            <parameter index="1" name="static gain" parameterValue="1"/>
          </component>
          <component componentGuid="9f1262f6-f4b6-44b2-a136-bd9a1dd99a59" componentID="Audition.Mute" id="clipMute" name="Mute" powered="true">
            <parameter index="0" parameterValue="0"/>
            <parameter index="1" name="mute" parameterValue="0"/>
          </component>
          <component componentGuid="07f2f4da-4d37-4787-a516-fb6f871413fd" componentID="Audition.StereoPanner" id="clipPan" name="StereoPanner" powered="true">
            <parameter index="0" name="Pan" parameterValue="0"/>
          </component>
          <fadeIn crossFadeLinkType="linkedAsymmetric" endPoint="0" shape="19" startPoint="0" type="log"/>
          <fadeOut crossFadeLinkType="linkedAsymmetric" endPoint="240000" shape="19" startPoint="240000" type="log"/>
          <editParameter parameterIndex="0" slotIndex="4294967280"/>
          <editParameter parameterIndex="0" slotIndex="4294967281"/>
          <channelMap>
            <channel index="0" sourceIndex="0"/>
            <channel index="1" sourceIndex="1"/>
          </channelMap>
        </audioClip>
        <audioClip clipAutoCrossfade="true" crossFadeHeadClipID="-1" crossFadeTailClipID="-1" endPoint="15840000" fileID="0" hue="-1" id="65" lockedInTime="false" looped="false" name="Laurent Garnier - Crispy Bacon" offline="false" select="false" sourceInPoint="15600000" sourceOutPoint="15840000" startPoint="15600000" zOrder="65">
          <component componentGuid="644a3be4-f309-45c2-a272-73443b4d1068" componentID="Audition.Fader" id="clipGain" name="volume" powered="true">
            <parameter index="0" name="volume" parameterValue="1"/>
            <parameter index="1" name="static gain" parameterValue="1"/>
          </component>
          <component componentGuid="2ec63412-48f9-4aae-9737-b7d461b457ed" componentID="Audition.Mute" id="clipMute" name="Mute" powered="true">
            <parameter index="0" parameterValue="0"/>
            <parameter index="1" name="mute" parameterValue="0"/>
          </component>
          <component componentGuid="aed4562e-69f7-4835-8e1b-72cc4a47f68e" componentID="Audition.StereoPanner" id="clipPan" name="StereoPanner" powered="true">
            <parameter index="0" name="Pan" parameterValue="0"/>
          </component>
          <fadeIn crossFadeLinkType="linkedAsymmetric" endPoint="0" shape="19" startPoint="0" type="log"/>
          <fadeOut crossFadeLinkType="linkedAsymmetric" endPoint="240000" shape="19" startPoint="240000" type="log"/>
          <editParameter parameterIndex="0" slotIndex="4294967280"/>
          <editParameter parameterIndex="0" slotIndex="4294967281"/>
          <channelMap>
            <channel index="0" sourceIndex="0"/>
            <channel index="1" sourceIndex="1"/>
          </channelMap>
        </audioClip>
        <audioClip clipAutoCrossfade="true" crossFadeHeadClipID="-1" crossFadeTailClipID="-1" endPoint="16080000" fileID="0" hue="-1" id="66" lockedInTime="false" looped="false" name="Laurent Garnier - Crispy Bacon" offline="false" select="false" sourceInPoint="15840000" sourceOutPoint="16080000" startPoint="15840000" zOrder="66">
          <component componentGuid="1d9bcea4-d988-401c-8e01-bd2bd8e5efa1" componentID="Audition.Fader" id="clipGain" name="volume" powered="true">
            <parameter index="0" name="volume" parameterValue="1"/>
            <parameter index="1" name="static gain" parameterValue="1"/>
          </component>
          <component componentGuid="b90e7aa5-e20c-454c-beef-f8bd1842a392" componentID="Audition.Mute" id="clipMute" name="Mute" powered="true">
            <parameter index="0" parameterValue="0"/>
            <parameter index="1" name="mute" parameterValue="0"/>
          </component>
          <component componentGuid="adc38334-549b-4a67-9f23-d54e9649c524" componentID="Audition.StereoPanner" id="clipPan" name="StereoPanner" powered="true">
            <parameter index="0" name="Pan" parameterValue="0"/>
          </component>
          <fadeIn crossFadeLinkType="linkedAsymmetric" endPoint="0" shape="19" startPoint="0" type="log"/>
          <fadeOut crossFadeLinkType="linkedAsymmetric" endPoint="240000" shape="19" startPoint="240000" type="log"/>
          <editParameter parameterIndex="0" slotIndex="4294967280"/>
          <editParameter parameterIndex="0" slotIndex="4294967281"/>
          <channelMap>
            <channel index="0" sourceIndex="0"/>
            <channel index="1" sourceIndex="1"/>
          </channelMap>
        </audioClip>
        <audioClip clipAutoCrossfade="true" crossFadeHeadClipID="-1" crossFadeTailClipID="-1" endPoint="16320000" fileID="0" hue="-1" id="67" lockedInTime="false" looped="false" name="Laurent Garnier - Crispy Bacon" offline="false" select="true" sourceInPoint="16080000" sourceOutPoint="16320000" startPoint="16080000" zOrder="69">
          <component componentGuid="99597cb1-2524-48d4-b510-c88c27f0daea" componentID="Audition.Fader" id="clipGain" name="volume" powered="true">
            <parameter index="0" name="volume" parameterValue="1"/>
            <parameter index="1" name="static gain" parameterValue="1"/>
          </component>
          <component componentGuid="43adc48e-eb25-4623-a6b0-65d8ccc22407" componentID="Audition.Mute" id="clipMute" name="Mute" powered="true">
            <parameter index="0" parameterValue="0"/>
            <parameter index="1" name="mute" parameterValue="0"/>
          </component>
          <component componentGuid="07c0d989-9e2d-4bd1-b51f-b7695fa7309d" componentID="Audition.StereoPanner" id="clipPan" name="StereoPanner" powered="true">
            <parameter index="0" name="Pan" parameterValue="0"/>
          </component>
          <fadeIn crossFadeLinkType="linkedAsymmetric" endPoint="0" shape="19" startPoint="0" type="log"/>
          <fadeOut crossFadeLinkType="linkedAsymmetric" endPoint="240000" shape="19" startPoint="240000" type="log"/>
          <editParameter parameterIndex="0" slotIndex="4294967280"/>
          <editParameter parameterIndex="0" slotIndex="4294967281"/>
          <channelMap>
            <channel index="0" sourceIndex="0"/>
            <channel index="1" sourceIndex="1"/>
          </channelMap>
        </audioClip>
        <audioClip clipAutoCrossfade="true" crossFadeHeadClipID="-1" crossFadeTailClipID="-1" endPoint="16489728" fileID="0" hue="-1" id="68" lockedInTime="false" looped="false" name="Laurent Garnier - Crispy Bacon" offline="false" select="false" sourceInPoint="16320000" sourceOutPoint="16489728" startPoint="16320000" zOrder="68">
          <component componentGuid="dba9a7fa-4085-45bb-baf5-b28e2c3cf9f1" componentID="Audition.Fader" id="clipGain" name="volume" powered="true">
            <parameter index="0" name="volume" parameterValue="1"/>
            <parameter index="1" name="static gain" parameterValue="1"/>
          </component>
          <component componentGuid="ead7ba13-8fae-4390-bf74-aa85890a9a71" componentID="Audition.Mute" id="clipMute" name="Mute" powered="true">
            <parameter index="0" parameterValue="0"/>
            <parameter index="1" name="mute" parameterValue="0"/>
          </component>
          <component componentGuid="2dfe466b-f732-4808-be4f-bbc4d6c267ab" componentID="Audition.StereoPanner" id="clipPan" name="StereoPanner" powered="true">
            <parameter index="0" name="Pan" parameterValue="0"/>
          </component>
          <fadeIn crossFadeLinkType="linkedAsymmetric" endPoint="0" shape="19" startPoint="0" type="log"/>
          <fadeOut crossFadeLinkType="linkedAsymmetric" endPoint="169728" shape="19" startPoint="169728" type="log"/>
          <editParameter parameterIndex="0" slotIndex="4294967280"/>
          <editParameter parameterIndex="0" slotIndex="4294967281"/>
          <channelMap>
            <channel index="0" sourceIndex="0"/>
            <channel index="1" sourceIndex="1"/>
          </channelMap>
        </audioClip>
      </audioTrack>
      <audioTrack automationLaneOpenState="false" id="10002" index="2" select="false" visible="true">
        <trackParameters trackHeight="134" trackHue="267" trackMinimized="false">
          <name>Track 2</name>
        </trackParameters>
        <trackAudioParameters audioChannelType="stereo" automationMode="1" monitoring="false" recordArmed="false" solo="false" soloSafe="false">
          <trackOutput outputID="10000" type="trackID"/>
          <trackInput inputID="1"/>
          <component componentGuid="5b76e497-c8ba-428d-9040-44c020c84d20" componentID="Audition.Fader" id="trackFader" name="volume" powered="true">
            <parameter index="0" name="volume" parameterValue="1"/>
            <parameter index="1" name="static gain" parameterValue="1"/>
          </component>
          <component componentGuid="2503c17a-02ed-4d98-84af-f4008051691d" componentID="Audition.Mute" id="trackMute" name="Mute" powered="true">
            <parameter index="0" parameterValue="0"/>
            <parameter index="1" name="mute" parameterValue="0"/>
          </component>
          <component componentGuid="c9124bca-ebcf-4cd6-9f96-7ddd6bb38a3f" componentID="Audition.StereoPanner" id="trackPan" name="StereoPanner" powered="true">
            <parameter index="0" name="Pan" parameterValue="0"/>
          </component>
          <component componentGuid="82898d28-4481-42b7-b260-02c4d73ce499" componentID="Audition.EQ" id="trackEQ" name="EQ" powered="false">
            <parameter index="0" name="Low Shelf Frequency" parameterValue="0.000834028352983295917510986328125"/>
            <parameter index="1" name="Low Shelf Gain" parameterValue="0.5"/>
            <parameter index="2" name="High Shelf Frequency" parameterValue="0.74979150295257568359375"/>
            <parameter index="3" name="High Shelf Gain" parameterValue="0.5"/>
            <parameter index="4" name="EQ Band 1 Center Frequency" parameterValue="0.00125104258768260478973388671875"/>
            <parameter index="5" name="EQ Band 1 Q" parameterValue="0.000199989997781813144683837890625"/>
            <parameter index="6" name="EQ Band 1 Gain" parameterValue="0.5"/>
            <parameter index="7" name="EQ Band 1 Enable" parameterValue="1"/>
            <parameter index="8" name="EQ Band 2 Center Frequency" parameterValue="0.0075062550604343414306640625"/>
            <parameter index="9" name="EQ Band 2 Q" parameterValue="0.000199989997781813144683837890625"/>
            <parameter index="10" name="EQ Band 2 Gain" parameterValue="0.5"/>
            <parameter index="11" name="EQ Band 2 Enable" parameterValue="1"/>
            <parameter index="12" name="EQ Band 3 Center Frequency" parameterValue="0.0325271077454090118408203125"/>
            <parameter index="13" name="EQ Band 3 Q" parameterValue="0.000199989997781813144683837890625"/>
            <parameter index="14" name="EQ Band 3 Gain" parameterValue="0.5"/>
            <parameter index="15" name="EQ Band 3 Enable" parameterValue="1"/>
            <parameter index="16" name="EQ Band 4 Center Frequency" parameterValue="0.13261051476001739501953125"/>
            <parameter index="17" name="EQ Band 4 Q" parameterValue="0.000199989997781813144683837890625"/>
            <parameter index="18" name="EQ Band 4 Gain" parameterValue="0.5"/>
            <parameter index="19" name="EQ Band 4 Enable" parameterValue="1"/>
            <parameter index="20" name="EQ Band 5 Center Frequency" parameterValue="0.532944142818450927734375"/>
            <parameter index="21" name="EQ Band 5 Q" parameterValue="0.000199989997781813144683837890625"/>
            <parameter index="22" name="EQ Band 5 Gain" parameterValue="0.5"/>
            <parameter index="23" name="EQ Band 5 Enable" parameterValue="1"/>
            <parameter index="24" name="Gain" parameterValue="0.666666686534881591796875"/>
            <parameter index="25" name="ConstantQ" parameterValue="1"/>
            <parameter index="26" name="Low Shelf Filter Order" parameterValue="0"/>
            <parameter index="27" name="High Shelf Filter Order" parameterValue="0"/>
            <parameter index="28" name="Ultra-Quiet Mode" parameterValue="0"/>
            <parameter index="29" name="Low Shelf Enable" parameterValue="1"/>
            <parameter index="30" name="High Shelf Enable" parameterValue="1"/>
            <parameter index="31" name="Original Sample Rate" parameterValue="0.25"/>
            <parameter index="32" name="EQ Band 1 Bandwidth" parameterValue="0.002499990165233612060546875"/>
            <parameter index="33" name="EQ Band 2 Bandwidth" parameterValue="0.0099999904632568359375"/>
            <parameter index="34" name="EQ Band 3 Bandwidth" parameterValue="0.0399999916553497314453125"/>
            <parameter index="35" name="EQ Band 4 Bandwidth" parameterValue="0.15999998152256011962890625"/>
            <parameter index="36" name="EQ Band 5 Bandwidth" parameterValue="0.63999998569488525390625"/>
            <parameter index="37" name="High-Pass Filter Enable" parameterValue="0"/>
            <parameter index="38" name="High-Pass Cutoff Frequency" parameterValue="0"/>
            <parameter index="39" name="High-Pass Slope" parameterValue="0.4000000059604644775390625"/>
            <parameter index="40" name="Low-Pass Filter Enable" parameterValue="0"/>
            <parameter index="41" name="Low-Pass Cutoff Frequency" parameterValue="0.833194315433502197265625"/>
            <parameter index="42" name="Low-Pass Slope" parameterValue="0.4000000059604644775390625"/>
            <parameter index="43" name="Bypass" parameterValue="0"/>
            <parameter index="44" name="LowGraphRange" parameterValue="1"/>
          </component>
        </trackAudioParameters>
        <editParameter parameterIndex="0" slotIndex="4294967280"/>
      </audioTrack>
      <audioTrack automationLaneOpenState="false" id="10003" index="3" select="false" visible="true">
        <trackParameters trackHeight="134" trackHue="51" trackMinimized="false">
          <name>Track 3</name>
        </trackParameters>
        <trackAudioParameters audioChannelType="stereo" automationMode="1" monitoring="false" recordArmed="false" solo="false" soloSafe="false">
          <trackOutput outputID="10000" type="trackID"/>
          <trackInput inputID="1"/>
          <component componentGuid="51aca6b5-5a1f-47e1-a3ed-9c925d83c4af" componentID="Audition.Fader" id="trackFader" name="volume" powered="true">
            <parameter index="0" name="volume" parameterValue="1"/>
            <parameter index="1" name="static gain" parameterValue="1"/>
          </component>
          <component componentGuid="3fe5126b-43df-4322-89fa-b0e4521c6102" componentID="Audition.Mute" id="trackMute" name="Mute" powered="true">
            <parameter index="0" parameterValue="0"/>
            <parameter index="1" name="mute" parameterValue="0"/>
          </component>
          <component componentGuid="e21597fb-10d2-44cf-ab7d-bab9c77c1336" componentID="Audition.StereoPanner" id="trackPan" name="StereoPanner" powered="true">
            <parameter index="0" name="Pan" parameterValue="0"/>
          </component>
          <component componentGuid="b36e202c-4d18-4e93-95ab-f1b81b3101e8" componentID="Audition.EQ" id="trackEQ" name="EQ" powered="false">
            <parameter index="0" name="Low Shelf Frequency" parameterValue="0.000834028352983295917510986328125"/>
            <parameter index="1" name="Low Shelf Gain" parameterValue="0.5"/>
            <parameter index="2" name="High Shelf Frequency" parameterValue="0.74979150295257568359375"/>
            <parameter index="3" name="High Shelf Gain" parameterValue="0.5"/>
            <parameter index="4" name="EQ Band 1 Center Frequency" parameterValue="0.00125104258768260478973388671875"/>
            <parameter index="5" name="EQ Band 1 Q" parameterValue="0.000199989997781813144683837890625"/>
            <parameter index="6" name="EQ Band 1 Gain" parameterValue="0.5"/>
            <parameter index="7" name="EQ Band 1 Enable" parameterValue="1"/>
            <parameter index="8" name="EQ Band 2 Center Frequency" parameterValue="0.0075062550604343414306640625"/>
            <parameter index="9" name="EQ Band 2 Q" parameterValue="0.000199989997781813144683837890625"/>
            <parameter index="10" name="EQ Band 2 Gain" parameterValue="0.5"/>
            <parameter index="11" name="EQ Band 2 Enable" parameterValue="1"/>
            <parameter index="12" name="EQ Band 3 Center Frequency" parameterValue="0.0325271077454090118408203125"/>
            <parameter index="13" name="EQ Band 3 Q" parameterValue="0.000199989997781813144683837890625"/>
            <parameter index="14" name="EQ Band 3 Gain" parameterValue="0.5"/>
            <parameter index="15" name="EQ Band 3 Enable" parameterValue="1"/>
            <parameter index="16" name="EQ Band 4 Center Frequency" parameterValue="0.13261051476001739501953125"/>
            <parameter index="17" name="EQ Band 4 Q" parameterValue="0.000199989997781813144683837890625"/>
            <parameter index="18" name="EQ Band 4 Gain" parameterValue="0.5"/>
            <parameter index="19" name="EQ Band 4 Enable" parameterValue="1"/>
            <parameter index="20" name="EQ Band 5 Center Frequency" parameterValue="0.532944142818450927734375"/>
            <parameter index="21" name="EQ Band 5 Q" parameterValue="0.000199989997781813144683837890625"/>
            <parameter index="22" name="EQ Band 5 Gain" parameterValue="0.5"/>
            <parameter index="23" name="EQ Band 5 Enable" parameterValue="1"/>
            <parameter index="24" name="Gain" parameterValue="0.666666686534881591796875"/>
            <parameter index="25" name="ConstantQ" parameterValue="1"/>
            <parameter index="26" name="Low Shelf Filter Order" parameterValue="0"/>
            <parameter index="27" name="High Shelf Filter Order" parameterValue="0"/>
            <parameter index="28" name="Ultra-Quiet Mode" parameterValue="0"/>
            <parameter index="29" name="Low Shelf Enable" parameterValue="1"/>
            <parameter index="30" name="High Shelf Enable" parameterValue="1"/>
            <parameter index="31" name="Original Sample Rate" parameterValue="0.25"/>
            <parameter index="32" name="EQ Band 1 Bandwidth" parameterValue="0.002499990165233612060546875"/>
            <parameter index="33" name="EQ Band 2 Bandwidth" parameterValue="0.0099999904632568359375"/>
            <parameter index="34" name="EQ Band 3 Bandwidth" parameterValue="0.0399999916553497314453125"/>
            <parameter index="35" name="EQ Band 4 Bandwidth" parameterValue="0.15999998152256011962890625"/>
            <parameter index="36" name="EQ Band 5 Bandwidth" parameterValue="0.63999998569488525390625"/>
            <parameter index="37" name="High-Pass Filter Enable" parameterValue="0"/>
            <parameter index="38" name="High-Pass Cutoff Frequency" parameterValue="0"/>
            <parameter index="39" name="High-Pass Slope" parameterValue="0.4000000059604644775390625"/>
            <parameter index="40" name="Low-Pass Filter Enable" parameterValue="0"/>
            <parameter index="41" name="Low-Pass Cutoff Frequency" parameterValue="0.833194315433502197265625"/>
            <parameter index="42" name="Low-Pass Slope" parameterValue="0.4000000059604644775390625"/>
            <parameter index="43" name="Bypass" parameterValue="0"/>
            <parameter index="44" name="LowGraphRange" parameterValue="1"/>
          </component>
        </trackAudioParameters>
        <editParameter parameterIndex="0" slotIndex="4294967280"/>
      </audioTrack>
      <audioTrack automationLaneOpenState="false" id="10004" index="4" select="false" visible="true">
        <trackParameters trackHeight="134" trackHue="182" trackMinimized="false">
          <name>Track 4</name>
        </trackParameters>
        <trackAudioParameters audioChannelType="stereo" automationMode="1" monitoring="false" recordArmed="false" solo="false" soloSafe="false">
          <trackOutput outputID="10000" type="trackID"/>
          <trackInput inputID="1"/>
          <component componentGuid="cb055463-ee4a-433c-941e-ea10636ce3c7" componentID="Audition.Fader" id="trackFader" name="volume" powered="true">
            <parameter index="0" name="volume" parameterValue="1"/>
            <parameter index="1" name="static gain" parameterValue="1"/>
          </component>
          <component componentGuid="481e50a1-d593-400c-a581-3dcae0de6e56" componentID="Audition.Mute" id="trackMute" name="Mute" powered="true">
            <parameter index="0" parameterValue="0"/>
            <parameter index="1" name="mute" parameterValue="0"/>
          </component>
          <component componentGuid="21fbc6e2-7c73-4f5c-b6ad-4862d0d20514" componentID="Audition.StereoPanner" id="trackPan" name="StereoPanner" powered="true">
            <parameter index="0" name="Pan" parameterValue="0"/>
          </component>
          <component componentGuid="4d22baa6-ec1c-4705-bf23-c715876226c2" componentID="Audition.EQ" id="trackEQ" name="EQ" powered="false">
            <parameter index="0" name="Low Shelf Frequency" parameterValue="0.000834028352983295917510986328125"/>
            <parameter index="1" name="Low Shelf Gain" parameterValue="0.5"/>
            <parameter index="2" name="High Shelf Frequency" parameterValue="0.74979150295257568359375"/>
            <parameter index="3" name="High Shelf Gain" parameterValue="0.5"/>
            <parameter index="4" name="EQ Band 1 Center Frequency" parameterValue="0.00125104258768260478973388671875"/>
            <parameter index="5" name="EQ Band 1 Q" parameterValue="0.000199989997781813144683837890625"/>
            <parameter index="6" name="EQ Band 1 Gain" parameterValue="0.5"/>
            <parameter index="7" name="EQ Band 1 Enable" parameterValue="1"/>
            <parameter index="8" name="EQ Band 2 Center Frequency" parameterValue="0.0075062550604343414306640625"/>
            <parameter index="9" name="EQ Band 2 Q" parameterValue="0.000199989997781813144683837890625"/>
            <parameter index="10" name="EQ Band 2 Gain" parameterValue="0.5"/>
            <parameter index="11" name="EQ Band 2 Enable" parameterValue="1"/>
            <parameter index="12" name="EQ Band 3 Center Frequency" parameterValue="0.0325271077454090118408203125"/>
            <parameter index="13" name="EQ Band 3 Q" parameterValue="0.000199989997781813144683837890625"/>
            <parameter index="14" name="EQ Band 3 Gain" parameterValue="0.5"/>
            <parameter index="15" name="EQ Band 3 Enable" parameterValue="1"/>
            <parameter index="16" name="EQ Band 4 Center Frequency" parameterValue="0.13261051476001739501953125"/>
            <parameter index="17" name="EQ Band 4 Q" parameterValue="0.000199989997781813144683837890625"/>
            <parameter index="18" name="EQ Band 4 Gain" parameterValue="0.5"/>
            <parameter index="19" name="EQ Band 4 Enable" parameterValue="1"/>
            <parameter index="20" name="EQ Band 5 Center Frequency" parameterValue="0.532944142818450927734375"/>
            <parameter index="21" name="EQ Band 5 Q" parameterValue="0.000199989997781813144683837890625"/>
            <parameter index="22" name="EQ Band 5 Gain" parameterValue="0.5"/>
            <parameter index="23" name="EQ Band 5 Enable" parameterValue="1"/>
            <parameter index="24" name="Gain" parameterValue="0.666666686534881591796875"/>
            <parameter index="25" name="ConstantQ" parameterValue="1"/>
            <parameter index="26" name="Low Shelf Filter Order" parameterValue="0"/>
            <parameter index="27" name="High Shelf Filter Order" parameterValue="0"/>
            <parameter index="28" name="Ultra-Quiet Mode" parameterValue="0"/>
            <parameter index="29" name="Low Shelf Enable" parameterValue="1"/>
            <parameter index="30" name="High Shelf Enable" parameterValue="1"/>
            <parameter index="31" name="Original Sample Rate" parameterValue="0.25"/>
            <parameter index="32" name="EQ Band 1 Bandwidth" parameterValue="0.002499990165233612060546875"/>
            <parameter index="33" name="EQ Band 2 Bandwidth" parameterValue="0.0099999904632568359375"/>
            <parameter index="34" name="EQ Band 3 Bandwidth" parameterValue="0.0399999916553497314453125"/>
            <parameter index="35" name="EQ Band 4 Bandwidth" parameterValue="0.15999998152256011962890625"/>
            <parameter index="36" name="EQ Band 5 Bandwidth" parameterValue="0.63999998569488525390625"/>
            <parameter index="37" name="High-Pass Filter Enable" parameterValue="0"/>
            <parameter index="38" name="High-Pass Cutoff Frequency" parameterValue="0"/>
            <parameter index="39" name="High-Pass Slope" parameterValue="0.4000000059604644775390625"/>
            <parameter index="40" name="Low-Pass Filter Enable" parameterValue="0"/>
            <parameter index="41" name="Low-Pass Cutoff Frequency" parameterValue="0.833194315433502197265625"/>
            <parameter index="42" name="Low-Pass Slope" parameterValue="0.4000000059604644775390625"/>
            <parameter index="43" name="Bypass" parameterValue="0"/>
            <parameter index="44" name="LowGraphRange" parameterValue="1"/>
          </component>
        </trackAudioParameters>
        <editParameter parameterIndex="0" slotIndex="4294967280"/>
      </audioTrack>
      <audioTrack automationLaneOpenState="false" id="10005" index="5" select="false" visible="true">
        <trackParameters trackHeight="134" trackHue="294" trackMinimized="false">
          <name>Track 5</name>
        </trackParameters>
        <trackAudioParameters audioChannelType="stereo" automationMode="1" monitoring="false" recordArmed="false" solo="false" soloSafe="false">
          <trackOutput outputID="10000" type="trackID"/>
          <trackInput inputID="1"/>
          <component componentGuid="dac41014-a3c3-440f-a104-dbd719de52ba" componentID="Audition.Fader" id="trackFader" name="volume" powered="true">
            <parameter index="0" name="volume" parameterValue="1"/>
            <parameter index="1" name="static gain" parameterValue="1"/>
          </component>
          <component componentGuid="58a4ac14-0e65-4b9a-9454-c6fd1f072aa1" componentID="Audition.Mute" id="trackMute" name="Mute" powered="true">
            <parameter index="0" parameterValue="0"/>
            <parameter index="1" name="mute" parameterValue="0"/>
          </component>
          <component componentGuid="5ad7fa59-e838-4458-a81f-6501ace2a560" componentID="Audition.StereoPanner" id="trackPan" name="StereoPanner" powered="true">
            <parameter index="0" name="Pan" parameterValue="0"/>
          </component>
          <component componentGuid="30526852-6b21-4876-ae8a-925269e599ce" componentID="Audition.EQ" id="trackEQ" name="EQ" powered="false">
            <parameter index="0" name="Low Shelf Frequency" parameterValue="0.000834028352983295917510986328125"/>
            <parameter index="1" name="Low Shelf Gain" parameterValue="0.5"/>
            <parameter index="2" name="High Shelf Frequency" parameterValue="0.74979150295257568359375"/>
            <parameter index="3" name="High Shelf Gain" parameterValue="0.5"/>
            <parameter index="4" name="EQ Band 1 Center Frequency" parameterValue="0.00125104258768260478973388671875"/>
            <parameter index="5" name="EQ Band 1 Q" parameterValue="0.000199989997781813144683837890625"/>
            <parameter index="6" name="EQ Band 1 Gain" parameterValue="0.5"/>
            <parameter index="7" name="EQ Band 1 Enable" parameterValue="1"/>
            <parameter index="8" name="EQ Band 2 Center Frequency" parameterValue="0.0075062550604343414306640625"/>
            <parameter index="9" name="EQ Band 2 Q" parameterValue="0.000199989997781813144683837890625"/>
            <parameter index="10" name="EQ Band 2 Gain" parameterValue="0.5"/>
            <parameter index="11" name="EQ Band 2 Enable" parameterValue="1"/>
            <parameter index="12" name="EQ Band 3 Center Frequency" parameterValue="0.0325271077454090118408203125"/>
            <parameter index="13" name="EQ Band 3 Q" parameterValue="0.000199989997781813144683837890625"/>
            <parameter index="14" name="EQ Band 3 Gain" parameterValue="0.5"/>
            <parameter index="15" name="EQ Band 3 Enable" parameterValue="1"/>
            <parameter index="16" name="EQ Band 4 Center Frequency" parameterValue="0.13261051476001739501953125"/>
            <parameter index="17" name="EQ Band 4 Q" parameterValue="0.000199989997781813144683837890625"/>
            <parameter index="18" name="EQ Band 4 Gain" parameterValue="0.5"/>
            <parameter index="19" name="EQ Band 4 Enable" parameterValue="1"/>
            <parameter index="20" name="EQ Band 5 Center Frequency" parameterValue="0.532944142818450927734375"/>
            <parameter index="21" name="EQ Band 5 Q" parameterValue="0.000199989997781813144683837890625"/>
            <parameter index="22" name="EQ Band 5 Gain" parameterValue="0.5"/>
            <parameter index="23" name="EQ Band 5 Enable" parameterValue="1"/>
            <parameter index="24" name="Gain" parameterValue="0.666666686534881591796875"/>
            <parameter index="25" name="ConstantQ" parameterValue="1"/>
            <parameter index="26" name="Low Shelf Filter Order" parameterValue="0"/>
            <parameter index="27" name="High Shelf Filter Order" parameterValue="0"/>
            <parameter index="28" name="Ultra-Quiet Mode" parameterValue="0"/>
            <parameter index="29" name="Low Shelf Enable" parameterValue="1"/>
            <parameter index="30" name="High Shelf Enable" parameterValue="1"/>
            <parameter index="31" name="Original Sample Rate" parameterValue="0.25"/>
            <parameter index="32" name="EQ Band 1 Bandwidth" parameterValue="0.002499990165233612060546875"/>
            <parameter index="33" name="EQ Band 2 Bandwidth" parameterValue="0.0099999904632568359375"/>
            <parameter index="34" name="EQ Band 3 Bandwidth" parameterValue="0.0399999916553497314453125"/>
            <parameter index="35" name="EQ Band 4 Bandwidth" parameterValue="0.15999998152256011962890625"/>
            <parameter index="36" name="EQ Band 5 Bandwidth" parameterValue="0.63999998569488525390625"/>
            <parameter index="37" name="High-Pass Filter Enable" parameterValue="0"/>
            <parameter index="38" name="High-Pass Cutoff Frequency" parameterValue="0"/>
            <parameter index="39" name="High-Pass Slope" parameterValue="0.4000000059604644775390625"/>
            <parameter index="40" name="Low-Pass Filter Enable" parameterValue="0"/>
            <parameter index="41" name="Low-Pass Cutoff Frequency" parameterValue="0.833194315433502197265625"/>
            <parameter index="42" name="Low-Pass Slope" parameterValue="0.4000000059604644775390625"/>
            <parameter index="43" name="Bypass" parameterValue="0"/>
            <parameter index="44" name="LowGraphRange" parameterValue="1"/>
          </component>
        </trackAudioParameters>
        <editParameter parameterIndex="0" slotIndex="4294967280"/>
      </audioTrack>
      <audioTrack automationLaneOpenState="false" id="10006" index="6" select="false" visible="true">
        <trackParameters trackHeight="134" trackHue="92" trackMinimized="false">
          <name>Track 6</name>
        </trackParameters>
        <trackAudioParameters audioChannelType="stereo" automationMode="1" monitoring="false" recordArmed="false" solo="false" soloSafe="false">
          <trackOutput outputID="10000" type="trackID"/>
          <trackInput inputID="1"/>
          <component componentGuid="7e0fb424-32e2-421f-8bae-b5313c32b699" componentID="Audition.Fader" id="trackFader" name="volume" powered="true">
            <parameter index="0" name="volume" parameterValue="1"/>
            <parameter index="1" name="static gain" parameterValue="1"/>
          </component>
          <component componentGuid="d01b96a1-500b-49b6-8cd3-065a3ef2a4ad" componentID="Audition.Mute" id="trackMute" name="Mute" powered="true">
            <parameter index="0" parameterValue="0"/>
            <parameter index="1" name="mute" parameterValue="0"/>
          </component>
          <component componentGuid="db5fcb4b-115f-4371-8d7e-cf93a85481f4" componentID="Audition.StereoPanner" id="trackPan" name="StereoPanner" powered="true">
            <parameter index="0" name="Pan" parameterValue="0"/>
          </component>
          <component componentGuid="2c22f0c2-31aa-4c4e-87cd-e964a4f4c7f1" componentID="Audition.EQ" id="trackEQ" name="EQ" powered="false">
            <parameter index="0" name="Low Shelf Frequency" parameterValue="0.000834028352983295917510986328125"/>
            <parameter index="1" name="Low Shelf Gain" parameterValue="0.5"/>
            <parameter index="2" name="High Shelf Frequency" parameterValue="0.74979150295257568359375"/>
            <parameter index="3" name="High Shelf Gain" parameterValue="0.5"/>
            <parameter index="4" name="EQ Band 1 Center Frequency" parameterValue="0.00125104258768260478973388671875"/>
            <parameter index="5" name="EQ Band 1 Q" parameterValue="0.000199989997781813144683837890625"/>
            <parameter index="6" name="EQ Band 1 Gain" parameterValue="0.5"/>
            <parameter index="7" name="EQ Band 1 Enable" parameterValue="1"/>
            <parameter index="8" name="EQ Band 2 Center Frequency" parameterValue="0.0075062550604343414306640625"/>
            <parameter index="9" name="EQ Band 2 Q" parameterValue="0.000199989997781813144683837890625"/>
            <parameter index="10" name="EQ Band 2 Gain" parameterValue="0.5"/>
            <parameter index="11" name="EQ Band 2 Enable" parameterValue="1"/>
            <parameter index="12" name="EQ Band 3 Center Frequency" parameterValue="0.0325271077454090118408203125"/>
            <parameter index="13" name="EQ Band 3 Q" parameterValue="0.000199989997781813144683837890625"/>
            <parameter index="14" name="EQ Band 3 Gain" parameterValue="0.5"/>
            <parameter index="15" name="EQ Band 3 Enable" parameterValue="1"/>
            <parameter index="16" name="EQ Band 4 Center Frequency" parameterValue="0.13261051476001739501953125"/>
            <parameter index="17" name="EQ Band 4 Q" parameterValue="0.000199989997781813144683837890625"/>
            <parameter index="18" name="EQ Band 4 Gain" parameterValue="0.5"/>
            <parameter index="19" name="EQ Band 4 Enable" parameterValue="1"/>
            <parameter index="20" name="EQ Band 5 Center Frequency" parameterValue="0.532944142818450927734375"/>
            <parameter index="21" name="EQ Band 5 Q" parameterValue="0.000199989997781813144683837890625"/>
            <parameter index="22" name="EQ Band 5 Gain" parameterValue="0.5"/>
            <parameter index="23" name="EQ Band 5 Enable" parameterValue="1"/>
            <parameter index="24" name="Gain" parameterValue="0.666666686534881591796875"/>
            <parameter index="25" name="ConstantQ" parameterValue="1"/>
            <parameter index="26" name="Low Shelf Filter Order" parameterValue="0"/>
            <parameter index="27" name="High Shelf Filter Order" parameterValue="0"/>
            <parameter index="28" name="Ultra-Quiet Mode" parameterValue="0"/>
            <parameter index="29" name="Low Shelf Enable" parameterValue="1"/>
            <parameter index="30" name="High Shelf Enable" parameterValue="1"/>
            <parameter index="31" name="Original Sample Rate" parameterValue="0.25"/>
            <parameter index="32" name="EQ Band 1 Bandwidth" parameterValue="0.002499990165233612060546875"/>
            <parameter index="33" name="EQ Band 2 Bandwidth" parameterValue="0.0099999904632568359375"/>
            <parameter index="34" name="EQ Band 3 Bandwidth" parameterValue="0.0399999916553497314453125"/>
            <parameter index="35" name="EQ Band 4 Bandwidth" parameterValue="0.15999998152256011962890625"/>
            <parameter index="36" name="EQ Band 5 Bandwidth" parameterValue="0.63999998569488525390625"/>
            <parameter index="37" name="High-Pass Filter Enable" parameterValue="0"/>
            <parameter index="38" name="High-Pass Cutoff Frequency" parameterValue="0"/>
            <parameter index="39" name="High-Pass Slope" parameterValue="0.4000000059604644775390625"/>
            <parameter index="40" name="Low-Pass Filter Enable" parameterValue="0"/>
            <parameter index="41" name="Low-Pass Cutoff Frequency" parameterValue="0.833194315433502197265625"/>
            <parameter index="42" name="Low-Pass Slope" parameterValue="0.4000000059604644775390625"/>
            <parameter index="43" name="Bypass" parameterValue="0"/>
            <parameter index="44" name="LowGraphRange" parameterValue="1"/>
          </component>
        </trackAudioParameters>
        <editParameter parameterIndex="0" slotIndex="4294967280"/>
      </audioTrack>
      <masterTrack automationLaneOpenState="false" id="10000" index="7" select="false" visible="true">
        <trackParameters trackHeight="134" trackHue="-1" trackMinimized="false">
          <name>Mix</name>
        </trackParameters>
        <trackAudioParameters audioChannelType="stereo" automationMode="1" monitoring="false" recordArmed="false" solo="false" soloSafe="true">
          <trackOutput outputID="1" type="hardwareOutput"/>
          <trackInput inputID="-1"/>
          <component componentGuid="c7e5c37c-7ad2-46c3-82eb-815ef8af1adc" componentID="Audition.Fader" id="trackFader" name="volume" powered="true">
            <parameter index="0" name="volume" parameterValue="1"/>
            <parameter index="1" name="static gain" parameterValue="1"/>
          </component>
          <component componentGuid="4a7413d2-0fc1-4b2e-9255-f4f1bc939b35" componentID="Audition.Mute" id="trackMute" name="Mute" powered="true">
            <parameter index="0" parameterValue="0"/>
            <parameter index="1" name="mute" parameterValue="0"/>
          </component>
          <component componentGuid="dde8e72f-464f-4095-8cdc-04a2736d6acf" componentID="Audition.StereoPanner" id="trackPan" name="StereoPanner" powered="true">
            <parameter index="0" name="Pan" parameterValue="0"/>
          </component>
          <component componentGuid="400fd0d8-6c40-42b4-9c7a-359249fb4d24" componentID="Audition.EQ" id="trackEQ" name="EQ" powered="false">
            <parameter index="0" name="Low Shelf Frequency" parameterValue="0.000834028352983295917510986328125"/>
            <parameter index="1" name="Low Shelf Gain" parameterValue="0.5"/>
            <parameter index="2" name="High Shelf Frequency" parameterValue="0.74979150295257568359375"/>
            <parameter index="3" name="High Shelf Gain" parameterValue="0.5"/>
            <parameter index="4" name="EQ Band 1 Center Frequency" parameterValue="0.00125104258768260478973388671875"/>
            <parameter index="5" name="EQ Band 1 Q" parameterValue="0.000199989997781813144683837890625"/>
            <parameter index="6" name="EQ Band 1 Gain" parameterValue="0.5"/>
            <parameter index="7" name="EQ Band 1 Enable" parameterValue="1"/>
            <parameter index="8" name="EQ Band 2 Center Frequency" parameterValue="0.0075062550604343414306640625"/>
            <parameter index="9" name="EQ Band 2 Q" parameterValue="0.000199989997781813144683837890625"/>
            <parameter index="10" name="EQ Band 2 Gain" parameterValue="0.5"/>
            <parameter index="11" name="EQ Band 2 Enable" parameterValue="1"/>
            <parameter index="12" name="EQ Band 3 Center Frequency" parameterValue="0.0325271077454090118408203125"/>
            <parameter index="13" name="EQ Band 3 Q" parameterValue="0.000199989997781813144683837890625"/>
            <parameter index="14" name="EQ Band 3 Gain" parameterValue="0.5"/>
            <parameter index="15" name="EQ Band 3 Enable" parameterValue="1"/>
            <parameter index="16" name="EQ Band 4 Center Frequency" parameterValue="0.13261051476001739501953125"/>
            <parameter index="17" name="EQ Band 4 Q" parameterValue="0.000199989997781813144683837890625"/>
            <parameter index="18" name="EQ Band 4 Gain" parameterValue="0.5"/>
            <parameter index="19" name="EQ Band 4 Enable" parameterValue="1"/>
            <parameter index="20" name="EQ Band 5 Center Frequency" parameterValue="0.532944142818450927734375"/>
            <parameter index="21" name="EQ Band 5 Q" parameterValue="0.000199989997781813144683837890625"/>
            <parameter index="22" name="EQ Band 5 Gain" parameterValue="0.5"/>
            <parameter index="23" name="EQ Band 5 Enable" parameterValue="1"/>
            <parameter index="24" name="Gain" parameterValue="0.666666686534881591796875"/>
            <parameter index="25" name="ConstantQ" parameterValue="1"/>
            <parameter index="26" name="Low Shelf Filter Order" parameterValue="0"/>
            <parameter index="27" name="High Shelf Filter Order" parameterValue="0"/>
            <parameter index="28" name="Ultra-Quiet Mode" parameterValue="0"/>
            <parameter index="29" name="Low Shelf Enable" parameterValue="1"/>
            <parameter index="30" name="High Shelf Enable" parameterValue="1"/>
            <parameter index="31" name="Original Sample Rate" parameterValue="0.25"/>
            <parameter index="32" name="EQ Band 1 Bandwidth" parameterValue="0.002499990165233612060546875"/>
            <parameter index="33" name="EQ Band 2 Bandwidth" parameterValue="0.0099999904632568359375"/>
            <parameter index="34" name="EQ Band 3 Bandwidth" parameterValue="0.0399999916553497314453125"/>
            <parameter index="35" name="EQ Band 4 Bandwidth" parameterValue="0.15999998152256011962890625"/>
            <parameter index="36" name="EQ Band 5 Bandwidth" parameterValue="0.63999998569488525390625"/>
            <parameter index="37" name="High-Pass Filter Enable" parameterValue="0"/>
            <parameter index="38" name="High-Pass Cutoff Frequency" parameterValue="0"/>
            <parameter index="39" name="High-Pass Slope" parameterValue="0.4000000059604644775390625"/>
            <parameter index="40" name="Low-Pass Filter Enable" parameterValue="0"/>
            <parameter index="41" name="Low-Pass Cutoff Frequency" parameterValue="0.833194315433502197265625"/>
            <parameter index="42" name="Low-Pass Slope" parameterValue="0.4000000059604644775390625"/>
            <parameter index="43" name="Bypass" parameterValue="0"/>
            <parameter index="44" name="LowGraphRange" parameterValue="1"/>
          </component>
        </trackAudioParameters>
        <editParameter parameterIndex="0" slotIndex="4294967280"/>
      </masterTrack>
    </tracks>
    <sessionState ctiPosition="2973689" smpteStart="0">
      <selectionState selectionDuration="0" selectionStart="2973689"/>
      <viewState horizontalViewDuration="1549316" horizontalViewStart="12651548" trackControlsWidth="224" verticalScrollOffset="0"/>
      <timeFormatState beatsPerBar="4" beatsPerMinute="120" customFrameRate="12" linkToDefaultTimeSettings="true" noteLength="4" subdivisions="16" timeCodeDropFrame="false" timeCodeFrameRate="30" timeCodeNTSC="false" timeFormat="timeFormatDecimal"/>
      <mixingOptionState defaultPanModeLogarithmic="false" panPower="-3" playOverlappingClips="false"/>
    </sessionState>
    <xmpMetadata><![CDATA[<?xpacket begin="﻿" id="W5M0MpCehiHzreSzNTczkc9d"?>
<x:xmpmeta xmlns:x="adobe:ns:meta/" x:xmptk="Adobe XMP Core 7.1-c000 79.b0f8be9, 2021/12/08-19:11:22        ">
   <rdf:RDF xmlns:rdf="http://www.w3.org/1999/02/22-rdf-syntax-ns#">
      <rdf:Description rdf:about=""
            xmlns:xmp="http://ns.adobe.com/xap/1.0/"
            xmlns:xmpMM="http://ns.adobe.com/xap/1.0/mm/"
            xmlns:stEvt="http://ns.adobe.com/xap/1.0/sType/ResourceEvent#"
            xmlns:stRef="http://ns.adobe.com/xap/1.0/sType/ResourceRef#"
            xmlns:dc="http://purl.org/dc/elements/1.1/"
            xmlns:xmpDM="http://ns.adobe.com/xmp/1.0/DynamicMedia/">
         <xmp:CreatorTool>Adobe Audition 23.0 (Macintosh)</xmp:CreatorTool>
         <xmp:CreateDate>2022-11-15T14:06:50+01:00</xmp:CreateDate>
         <xmp:MetadataDate>2022-11-15T23:39:16+01:00</xmp:MetadataDate>
         <xmp:ModifyDate>2022-11-15T23:39:16+01:00</xmp:ModifyDate>
         <xmpMM:InstanceID>xmp.iid:5759c63f-f5e6-47cf-ab90-daa6e9aeff31</xmpMM:InstanceID>
         <xmpMM:DocumentID>xmp.did:5759c63f-f5e6-47cf-ab90-daa6e9aeff31</xmpMM:DocumentID>
         <xmpMM:OriginalDocumentID>xmp.did:d0591ffb-4c0d-4c88-bd46-3aa6f8dc5415</xmpMM:OriginalDocumentID>
         <xmpMM:History>
            <rdf:Seq>
               <rdf:li rdf:parseType="Resource">
                  <stEvt:action>saved</stEvt:action>
                  <stEvt:instanceID>xmp.iid:d0591ffb-4c0d-4c88-bd46-3aa6f8dc5415</stEvt:instanceID>
                  <stEvt:when>2022-11-15T14:06:50+01:00</stEvt:when>
                  <stEvt:softwareAgent>Adobe Audition 23.0 (Macintosh)</stEvt:softwareAgent>
                  <stEvt:changed>/metadata</stEvt:changed>
               </rdf:li>
               <rdf:li rdf:parseType="Resource">
                  <stEvt:action>saved</stEvt:action>
                  <stEvt:instanceID>xmp.iid:4537c157-24e9-4d9b-833c-eccccf95cc8f</stEvt:instanceID>
                  <stEvt:when>2022-11-15T15:01:08+01:00</stEvt:when>
                  <stEvt:softwareAgent>Adobe Audition 23.0 (Macintosh)</stEvt:softwareAgent>
                  <stEvt:changed>/metadata</stEvt:changed>
               </rdf:li>
               <rdf:li rdf:parseType="Resource">
                  <stEvt:action>saved</stEvt:action>
                  <stEvt:instanceID>xmp.iid:dcdc934a-cc23-470f-82db-9f92d4dcc8ae</stEvt:instanceID>
                  <stEvt:when>2022-11-15T15:01:08+01:00</stEvt:when>
                  <stEvt:softwareAgent>Adobe Audition 23.0 (Macintosh)</stEvt:softwareAgent>
                  <stEvt:changed>/</stEvt:changed>
               </rdf:li>
               <rdf:li rdf:parseType="Resource">
                  <stEvt:action>saved</stEvt:action>
                  <stEvt:instanceID>xmp.iid:c0dacec3-a678-4e33-8ef8-0e8de4d25196</stEvt:instanceID>
                  <stEvt:when>2022-11-15T23:38:47+01:00</stEvt:when>
                  <stEvt:softwareAgent>Adobe Audition 23.0 (Macintosh)</stEvt:softwareAgent>
                  <stEvt:changed>/metadata</stEvt:changed>
               </rdf:li>
               <rdf:li rdf:parseType="Resource">
                  <stEvt:action>saved</stEvt:action>
                  <stEvt:instanceID>xmp.iid:d46dfa95-4fb9-46b4-ac99-af32b0e2be15</stEvt:instanceID>
                  <stEvt:when>2022-11-15T23:38:47+01:00</stEvt:when>
                  <stEvt:softwareAgent>Adobe Audition 23.0 (Macintosh)</stEvt:softwareAgent>
                  <stEvt:changed>/</stEvt:changed>
               </rdf:li>
               <rdf:li rdf:parseType="Resource">
                  <stEvt:action>saved</stEvt:action>
                  <stEvt:instanceID>xmp.iid:7d76e452-0582-4f02-875c-7e52cfccb730</stEvt:instanceID>
                  <stEvt:when>2022-11-15T23:39:16+01:00</stEvt:when>
                  <stEvt:softwareAgent>Adobe Audition 23.0 (Macintosh)</stEvt:softwareAgent>
                  <stEvt:changed>/metadata</stEvt:changed>
               </rdf:li>
               <rdf:li rdf:parseType="Resource">
                  <stEvt:action>saved</stEvt:action>
                  <stEvt:instanceID>xmp.iid:5759c63f-f5e6-47cf-ab90-daa6e9aeff31</stEvt:instanceID>
                  <stEvt:when>2022-11-15T23:39:16+01:00</stEvt:when>
                  <stEvt:softwareAgent>Adobe Audition 23.0 (Macintosh)</stEvt:softwareAgent>
                  <stEvt:changed>/</stEvt:changed>
               </rdf:li>
            </rdf:Seq>
         </xmpMM:History>
         <xmpMM:DerivedFrom rdf:parseType="Resource">
            <stRef:instanceID>xmp.iid:7d76e452-0582-4f02-875c-7e52cfccb730</stRef:instanceID>
            <stRef:documentID>xmp.did:d0591ffb-4c0d-4c88-bd46-3aa6f8dc5415</stRef:documentID>
            <stRef:originalDocumentID>xmp.did:d0591ffb-4c0d-4c88-bd46-3aa6f8dc5415</stRef:originalDocumentID>
         </xmpMM:DerivedFrom>
         <dc:format>application/xml</dc:format>
         <xmpDM:Tracks>
            <rdf:Bag>
               <rdf:li rdf:parseType="Resource">
                  <xmpDM:trackName>CuePoint Markers</xmpDM:trackName>
                  <xmpDM:trackType>Cue</xmpDM:trackType>
                  <xmpDM:frameRate>f48000</xmpDM:frameRate>
               </rdf:li>
               <rdf:li rdf:parseType="Resource">
                  <xmpDM:trackName>CD Track Markers</xmpDM:trackName>
                  <xmpDM:trackType>Track</xmpDM:trackType>
                  <xmpDM:frameRate>f48000</xmpDM:frameRate>
               </rdf:li>
               <rdf:li rdf:parseType="Resource">
                  <xmpDM:trackName>Subclip Markers</xmpDM:trackName>
                  <xmpDM:trackType>InOut</xmpDM:trackType>
                  <xmpDM:frameRate>f48000</xmpDM:frameRate>
               </rdf:li>
            </rdf:Bag>
         </xmpDM:Tracks>
      </rdf:Description>
   </rdf:RDF>
</x:xmpmeta>
                                                                                                    
                                                                                                    
                                                                                                    
                                                                                                    
                                                                                                    
                                                                                                    
                                                                                                    
                                                                                                    
                                                                                                    
                                                                                                    
                                                                                                    
                                                                                                    
                                                                                                    
                                                                                                    
                                                                                                    
                                                                                                    
                                                                                                    
                                                                                                    
                                                                                                    
                                                                                                    
                           
<?xpacket end="w"?>]]></xmpMetadata>
    <clipGroups/>
    <metronome enabled="false" pattern="downBeat subdivision subdivision subdivision " soundSet="sticks">
      <metronomeTrack automationLaneOpenState="false" id="40000" index="0" select="false" visible="false">
        <trackParameters trackHeight="77" trackHue="-1" trackMinimized="false">
          <name>Metronome</name>
        </trackParameters>
        <trackAudioParameters audioChannelType="mono" automationMode="1" monitoring="false" recordArmed="false" solo="false" soloSafe="true">
          <trackOutput outputID="10000" type="trackID"/>
          <trackInput inputID="-1"/>
          <component componentGuid="2e1a7059-5d4c-487d-af36-9dd738f1a4ab" componentID="Audition.Fader" id="trackFader" name="volume" powered="true">
            <parameter index="0" name="volume" parameterValue="0.50118720531463623046875"/>
            <parameter index="1" name="static gain" parameterValue="1"/>
          </component>
          <component componentGuid="a3c70fd1-e9cb-43df-9c2f-fe56c279dfde" componentID="Audition.Mute" id="trackMute" name="Mute" powered="true">
            <parameter index="0" parameterValue="0"/>
            <parameter index="1" name="mute" parameterValue="0"/>
          </component>
          <component componentGuid="2f001271-7213-4f6d-b713-17ee2e7054b8" componentID="Audition.StereoPanner" id="trackPan" name="StereoPanner" powered="true">
            <parameter index="0" name="Pan" parameterValue="0"/>
          </component>
          <component componentGuid="ba1e1323-7b6f-4364-85df-5f5e1175e235" componentID="Audition.EQ" id="trackEQ" name="EQ" powered="false">
            <parameter index="0" name="Low Shelf Frequency" parameterValue="0.000834028352983295917510986328125"/>
            <parameter index="1" name="Low Shelf Gain" parameterValue="0.5"/>
            <parameter index="2" name="High Shelf Frequency" parameterValue="0.74979150295257568359375"/>
            <parameter index="3" name="High Shelf Gain" parameterValue="0.5"/>
            <parameter index="4" name="EQ Band 1 Center Frequency" parameterValue="0.00125104258768260478973388671875"/>
            <parameter index="5" name="EQ Band 1 Q" parameterValue="0.000199989997781813144683837890625"/>
            <parameter index="6" name="EQ Band 1 Gain" parameterValue="0.5"/>
            <parameter index="7" name="EQ Band 1 Enable" parameterValue="1"/>
            <parameter index="8" name="EQ Band 2 Center Frequency" parameterValue="0.0075062550604343414306640625"/>
            <parameter index="9" name="EQ Band 2 Q" parameterValue="0.000199989997781813144683837890625"/>
            <parameter index="10" name="EQ Band 2 Gain" parameterValue="0.5"/>
            <parameter index="11" name="EQ Band 2 Enable" parameterValue="1"/>
            <parameter index="12" name="EQ Band 3 Center Frequency" parameterValue="0.0325271077454090118408203125"/>
            <parameter index="13" name="EQ Band 3 Q" parameterValue="0.000199989997781813144683837890625"/>
            <parameter index="14" name="EQ Band 3 Gain" parameterValue="0.5"/>
            <parameter index="15" name="EQ Band 3 Enable" parameterValue="1"/>
            <parameter index="16" name="EQ Band 4 Center Frequency" parameterValue="0.13261051476001739501953125"/>
            <parameter index="17" name="EQ Band 4 Q" parameterValue="0.000199989997781813144683837890625"/>
            <parameter index="18" name="EQ Band 4 Gain" parameterValue="0.5"/>
            <parameter index="19" name="EQ Band 4 Enable" parameterValue="1"/>
            <parameter index="20" name="EQ Band 5 Center Frequency" parameterValue="0.532944142818450927734375"/>
            <parameter index="21" name="EQ Band 5 Q" parameterValue="0.000199989997781813144683837890625"/>
            <parameter index="22" name="EQ Band 5 Gain" parameterValue="0.5"/>
            <parameter index="23" name="EQ Band 5 Enable" parameterValue="1"/>
            <parameter index="24" name="Gain" parameterValue="0.666666686534881591796875"/>
            <parameter index="25" name="ConstantQ" parameterValue="1"/>
            <parameter index="26" name="Low Shelf Filter Order" parameterValue="0"/>
            <parameter index="27" name="High Shelf Filter Order" parameterValue="0"/>
            <parameter index="28" name="Ultra-Quiet Mode" parameterValue="0"/>
            <parameter index="29" name="Low Shelf Enable" parameterValue="1"/>
            <parameter index="30" name="High Shelf Enable" parameterValue="1"/>
            <parameter index="31" name="Original Sample Rate" parameterValue="0.25"/>
            <parameter index="32" name="EQ Band 1 Bandwidth" parameterValue="0.002499990165233612060546875"/>
            <parameter index="33" name="EQ Band 2 Bandwidth" parameterValue="0.0099999904632568359375"/>
            <parameter index="34" name="EQ Band 3 Bandwidth" parameterValue="0.0399999916553497314453125"/>
            <parameter index="35" name="EQ Band 4 Bandwidth" parameterValue="0.15999998152256011962890625"/>
            <parameter index="36" name="EQ Band 5 Bandwidth" parameterValue="0.63999998569488525390625"/>
            <parameter index="37" name="High-Pass Filter Enable" parameterValue="0"/>
            <parameter index="38" name="High-Pass Cutoff Frequency" parameterValue="0"/>
            <parameter index="39" name="High-Pass Slope" parameterValue="0.4000000059604644775390625"/>
            <parameter index="40" name="Low-Pass Filter Enable" parameterValue="0"/>
            <parameter index="41" name="Low-Pass Cutoff Frequency" parameterValue="0.833194315433502197265625"/>
            <parameter index="42" name="Low-Pass Slope" parameterValue="0.4000000059604644775390625"/>
            <parameter index="43" name="Bypass" parameterValue="0"/>
            <parameter index="44" name="LowGraphRange" parameterValue="1"/>
          </component>
        </trackAudioParameters>
        <editParameter parameterIndex="0" slotIndex="4294967280"/>
      </metronomeTrack>
    </metronome>
    <properties>
      <property key="EssentialSoundConfigurations">[{"Guid":"a8b40e3e-13e7-4c1f-b382-96058f1f691d","Name":"$$$/app/Presets/DefaultPresetName=(Default)","PresetData":{"ModeID":"ambience","Models":{"model_ducking":{},"model_loudness":{"DefaultLoudness":{"type":"float","value":-30},"LoudnessStandard":{"type":"std::uint32_t","value":0},"MaxLoudness":{"type":"float","value":-12},"MinLoudness":{"type":"float","value":-42}},"model_soundeffects":{"ReverbPresets":{"type":"tree::any","value":{"$$$/app/Presets/EssentialSound/ReverbPreset/LargeRoomAmbience=Large Room Ambience":{"type":"array::float","value":[0.051507499068975449,0.32432401180267334,0.29292899370193481,0.30000001192092896,0.20000000298023224,0,0.14285700023174286,0.40000000596046448,0.5,0.69999998807907104,0.30000001192092896,0.25125628709793091,0.03125]},"$$$/app/Presets/EssentialSound/ReverbPreset/OutsideAmbience=Outside Ambience":{"type":"array::float","value":[0.091708503663539886,0.043893899768590927,1,0.5,0.20000000298023224,0.80000001192092896,0.18367299437522888,1,0.5,0,0.80000001192092896,0.25125628709793091,0.03125]},"$$$/app/Presets/EssentialSound/ReverbPreset/RoomAmbience=Room Ambience":{"type":"array::float","value":[0.057788901031017303,0.44944900274276733,0.49494898319244385,0.89999997615814209,0.10000000149011612,0.15000000596046448,0.081632703542709351,0.40000000596046448,0.5,0.80000001192092896,0.20000000298023224,0.25125628709793091,0.03125]},"$$$/app/Presets/EssentialSound/ReverbPreset/WindEffect=Wind Effect":{"type":"array::float","value":[0.19597999751567841,0.6896899938583374,0.69696998596191406,0.25,0.5,0.5,0.23469400405883789,0.51999998092651367,0.5,0.75,0.25,0.25125628709793091,0.03125]}}}},"model_stereowidth":{},"model_volume":{"MaxGain":{"type":"float","value":15},"MinGain":{"type":"float","value":-60}}},"Version":1},"Type":"1c19ca71-c24c-49cd-8dd5-2cc46018507a","Version":1},{"Guid":"58dc27a8-6a2a-480c-bd0c-4b45fff346a6","Name":"$$$/app/Presets/DefaultPresetName=(Default)","PresetData":{"ModeID":"dialog","Models":{"model_clarity":{"EQPresets":{"type":"tree::any","value":{"$$$/app/Presets/EssentialSound/EQPreset/BackgroundVoice=Background Voice":{"type":"array::float","value":[0.12099699676036835,0.5,0.39240506291389465,0,0.5,0.5,0.5,0.5,0.5,0.47827938199043274,0.45772689580917358,0.45778733491897583,0.47946760058403015,0.5,0]},"$$$/app/Presets/EssentialSound/EQPreset/Intercom=Intercom":{"type":"array::float","value":[0.19432899355888367,0.5,1,0,0.071499988436698914,0.071499988436698914,0.071499988436698914,0.40238627791404724,0.48571401834487915,0.5,0.55155748128890991,0.59602576494216919,0.22246670722961426,0.071499988436698914,0]},"$$$/app/Presets/EssentialSound/EQPreset/LockedInTheTrunk=Locked in the Trunk":{"type":"array::float","value":[0.12099699676036835,0.5,0.79746836423873901,0,0.5,0.5,0.5,0.5,0.5,0.32846158742904663,0.15721426904201508,0.15721426904201508,0.15721426904201508,0.15721426904201508,0]},"$$$/app/Presets/EssentialSound/EQPreset/OldRadio=Old Radio":{"type":"array::float","value":[0.12099699676036835,0.5,0.79746836423873901,0,0.15721426904201508,0.15721426904201508,0.15721426904201508,0.28442040085792542,0.48315632343292236,0.36498492956161499,0.52853888273239136,0.43511500954627991,0.27154684066772461,0.15721426904201508,0]},"$$$/app/Presets/EssentialSound/EQPreset/OnTheTelephone=On the Telephone":{"type":"array::float","value":[0.12099699676036835,0.5,0.39240506291389465,0,0.32864287495613098,0.32864287495613098,0.32864287495613098,0.32864287495613098,0.48571401834487915,0.53071397542953491,0.53071397542953491,0.48357096314430237,0.32864287495613098,0.32864287495613098,0]},"$$$/app/Presets/EssentialSound/EQPreset/OutsideOfTheRoom=Outside of the Room":{"type":"array::float","value":[0.12099699676036835,0.5,0.79746836423873901,0,0.42539370059967041,0.47865453362464905,0.5,0.5,0.48571401834487915,0.40073278546333313,0.25656309723854065,0.15721426904201508,0.15721426904201508,0.15721426904201508,0]},"$$$/app/Presets/EssentialSound/EQPreset/PodcastVoice=Podcast Voice":{"type":"array::float","value":[0.12099699676036835,0.5,0.39240506291389465,0,0.5,0.5,0.5,0.51789408922195435,0.50770342350006104,0.5,0.51789408922195435,0.528114914894104,0.5102812647819519,0.5,0]},"$$$/app/Presets/EssentialSound/EQPreset/SubtleBoostFemale=Subtle Boost (Female)":{"type":"array::float","value":[0.096553400158882141,0.5,0.29113924503326416,0,0.5,0.5,0.5,0.5,0.5,0.51933407783508301,0.54642897844314575,0.52706766128540039,0.5,0.5,0]},"$$$/app/Presets/EssentialSound/EQPreset/SubtleBoostMale=Subtle Boost (Male)":{"type":"array::float","value":[0.096553400158882141,0.5,0.29113924503326416,0,0.5,0.5,0.5,0.5,0.5,0.5135338306427002,0.54642897844314575,0.51933407783508301,0.5,0.5,0]},"$$$/app/Presets/EssentialSound/EQPreset/ThatPublicRadioSound=That Public Radio Sound":{"type":"array::float","value":[0.12099699676036835,0.5,0.79746836423873901,0,0.15721426904201508,0.15721426904201508,0.15721426904201508,0.36334344744682312,0.49468311667442322,0.5,0.5,0.5,0.5,0.5,0]},"$$$/app/Presets/EssentialSound/EQPreset/VocalPresence=Vocal Presence":{"type":"array::float","value":[0.096553400158882141,0.5,0.32489451766014099,0,0.3572143018245697,0.3572143018245697,0.46428570151329041,0.47857141494750977,0.4763694703578949,0.49570354819297791,0.55924957990646362,0.56523394584655762,0.50859290361404419,0.46992480754852295,0]}}}},"model_loudness":{"DefaultLoudness":{"type":"float","value":-23},"LoudnessStandard":{"type":"std::uint32_t","value":0},"MaxLoudness":{"type":"float","value":-12},"MinLoudness":{"type":"float","value":-42}},"model_restoration":{"ReduceNoiseMaxSetting":{"type":"array::float","value":[1,0,0,0,0]},"ReduceNoiseMinSetting":{"type":"array::float","value":[0,0,0,0,0]},"ReduceReverbMaxSetting":{"type":"array::float","value":[1,0,1,0,0]},"ReduceReverbMinSetting":{"type":"array::float","value":[0,0,1,0,0]},"ReduceRumbleMaxSetting":{"type":"array::float","value":[1,0.061583578586578369,0.375,0,0,0.00083333335351198912,1,0,1,0.0390625,0.00083408987848088145,0,0.0041666668839752674,0.00022554649331141263,0.0046875001862645149,0.75,0.0052083334885537624,0.75,1,0.75,0.0040520834736526012,0.75,0.0042629167437553406,0.00022554649331141263,0.0064883334562182426,0.00022554649331141263,0.006866666954010725,0.75,0.0071704164147377014,0.00022554649331141263,0.01041458360850811,0.00022554649331141263,0.010900000110268593,0.75,0.011407917365431786,0.00022554649331141263,0.015606249682605267,0.00022554649331141263,0.016333334147930145,0.75,0.017094582319259644,0.00022554649331141263,0.026243748143315315,0.00022554649331141263,0.0274666678160429,0.75,0.028746666386723518,0.00022554649331141263,0.041658751666545868,0.00022554649331141263,0.043600000441074371,0.75,0.045631669461727142,0.00022554649331141263,0.062424581497907639,0.00022554649331141263,0.065333336591720581,0.75,0.068377502262592316,0.00022554649331141263,0.10497540980577469,0.00022554649331141263,0.1098666712641716,0.75,0.11498583108186722,0.00022554649331141263,0.16663584113121033,0.00022554649331141263,0.17440000176429749,0.75,0.18252624571323395,0.00022554649331141263,0.91874998807907104,0.00022554649331141263,1,0.00022554649331141263,0,0,0,0,0,0,0,0,0,0,0,0,0,0,0,0,0,0,0,0,0,0,0,0,0,0,0,0,0,0,0,0,0,0,0,0,0,0,0,0,0,0,0,0,0,0,0,0,0,0,0,0,0,0,0,0,0,0,0,0,0,0,0,0,0,0,0,0,0,0,0,0,0,0,0,0,0,0,0,0,0,0,0,0,0,0,0,0,0,0,0,0,0,0,0,0,0,0,0,0,0,0,0,0,0,0,0,0,0,0,0,0,0,0,0,0,0,0,0,0,0,0,0,0,0,0,0,0,0,0,0,0,0,0,0,0,0,0,0,0,0,0,0,0,0,0,0,0,0,0,0,0,0,0,0,0,0,0,0,0,0,0,0,0,0,0,0,0,0,0,0,0,0,0,0,0,0,0,0,0,0,0,0,0,0,0,0,0,0,0]},"ReduceRumbleMinSetting":{"type":"array::float","value":[1,0.061583578586578369,0.375,0,0,0.00083333335351198912,1,0,1,0.0390625,0.00083408987848088145,0.75,0.0041666668839752674,0.75,0.0046875001862645149,0.75,0.0052083334885537624,0.75,1,0.75,0.91874998807907104,0.61237245798110962,1,0.61237245798110962,0,0,0,0,0,0,0,0,0,0,0,0,0,0,0,0,0,0,0,0,0,0,0,0,0,0,0,0,0,0,0,0,0,0,0,0,0,0,0,0,0,0,0,0,0,0,0,0,0,0,0,0,0,0,0,0,0,0,0,0,0,0,0,0,0,0,0,0,0,0,0,0,0,0,0,0,0,0,0,0,0,0,0,0,0,0,0,0,0,0,0,0,0,0,0,0,0,0,0,0,0,0,0,0,0,0,0,0,0,0,0,0,0,0,0,0,0,0,0,0,0,0,0,0,0,0,0,0,0,0,0,0,0,0,0,0,0,0,0,0,0,0,0,0,0,0,0,0,0,0,0,0,0,0,0,0,0,0,0,0,0,0,0,0,0,0,0,0,0,0,0,0,0,0,0,0,0,0,0,0,0,0,0,0,0,0,0,0,0,0,0,0,0,0,0,0,0,0,0,0,0,0,0,0,0,0,0,0,0,0,0,0,0,0,0,0,0,0,0,0,0,0,0,0,0,0,0,0,0,0,0,0,0,0,0,0,0,0,0,0,0,0]},"ReduceSibilanceMaxSetting":{"type":"array::float","value":[0.5,0.19983997941017151,0.18367347121238708,0.26086956262588501,0.52702701091766357,0,1,0,0,0,0,0.75,1,1,0.40000000596046448]},"ReduceSibilanceMinSetting":{"type":"array::float","value":[0.875,0.19983997941017151,0.18367347121238708,0.19130434095859528,0.25675675272941589,0,1,0,0,0,0,0.75,1,1,0.40000000596046448]}},"model_soundeffects":{"ReverbPresets":{"type":"tree::any","value":{"$$$/app/Presets/EssentialSound/ReverbPreset/Auditorium=Auditorium":{"type":"array::float","value":[0.013047545216977596,0.15895412862300873,1,0.89999997615814209,0,0.52007436752319336,0.41663265228271484,0.46000000834465027,0.5,0.73000001907348633,0.15999999642372131,0.75376886129379272,0.03125]},"$$$/app/Presets/EssentialSound/ReverbPreset/Church=Church":{"type":"array::float","value":[0.032663315534591675,0.39939939975738525,0.79797977209091187,0.25,0.5,0.5,0.2297959178686142,0.72000002861022949,0.5,0.62999999523162842,0.87999999523162842,0.25125628709793091,0.03125]},"$$$/app/Presets/EssentialSound/ReverbPreset/LargeReflectiveRoom=Large Reflective Room":{"type":"array::float","value":[0.0074449013918638229,0.098988421261310577,0.79890537261962891,0.89999997615814209,0.10000000149011612,0.40110713243484497,0.060284845530986786,0.27522978186607361,0.5,0.73000001907348633,0.31999999284744263,0.25125628709793091,0.03125]},"$$$/app/Presets/EssentialSound/ReverbPreset/OutsideTheClub=Outside the Club":{"type":"array::float","value":[0.020615793764591217,0.050136558711528778,0.69696998596191406,0.25,0.094355784356594086,0.22242647409439087,0.1071428582072258,0.2800000011920929,0.5,0.73000001907348633,0.46000000834465027,0.25125628709793091,0.03125]},"$$$/app/Presets/EssentialSound/ReverbPreset/SmallDryRoom=Small Dry Room":{"type":"array::float","value":[0.24623115360736847,0.69975000619888306,0.29292899370193481,0.40000000596046448,0.20000000298023224,0.40000000596046448,0.039285715669393539,0.10000000149011612,0.5,1,0.5,0.75376886129379272,0.03125]},"$$$/app/Presets/EssentialSound/ReverbPreset/ThickenVoice=Thicken Voice":{"type":"array::float","value":[0.19597999751567841,0.23931467533111572,0.69696998596191406,0.25,0.5,0.53999996185302734,0.020408162847161293,0.20945435762405396,0.5,1,0.34999999403953552,0.25125628709793091,0.03125]},"$$$/app/Presets/EssentialSound/ReverbPreset/WarmRoom=Warm Room":{"type":"array::float","value":[0.020100502297282219,0.074074074625968933,0.49494948983192444,0.40000000596046448,0.74960309267044067,0.40000000596046448,0.1239795908331871,0.67000001668930054,0.5,0.85000002384185791,0.56000000238418579,0.25125628709793091,0.03125]},"$$$/app/Presets/EssentialSound/ReverbPreset/WarmVoice=Warm Voice":{"type":"array::float","value":[0.19597989320755005,0.89989989995956421,0,0.40000000596046448,0.20000000298023224,0.40000000596046448,0.10204081982374191,0.090000003576278687,0.5,1,0.30000001192092896,0.25125628709793091,0.03125]}}}},"model_volume":{"MaxGain":{"type":"float","value":15},"MinGain":{"type":"float","value":-60}}},"Version":2},"Type":"1c19ca71-c24c-49cd-8dd5-2cc46018507a","Version":1},{"Guid":"353811fa-4179-435e-8e5e-23028ba15a7a","Name":"$$$/app/Presets/DefaultPresetName=(Default)","PresetData":{"ModeID":"generic","Models":{"model_loudness":{"DefaultLoudness":{"type":"float","value":-24},"LoudnessStandard":{"type":"std::uint32_t","value":0},"MaxLoudness":{"type":"float","value":-12},"MinLoudness":{"type":"float","value":-42}},"model_volume":{"MaxGain":{"type":"float","value":15},"MinGain":{"type":"float","value":-60}}},"Version":1},"Type":"1c19ca71-c24c-49cd-8dd5-2cc46018507a","Version":1},{"Guid":"31ba96a6-5d3e-4d89-b1e1-1dbe3c055d0c","Name":"$$$/app/Presets/DefaultPresetName=(Default)","PresetData":{"ModeID":"music","Models":{"model_ducking":{},"model_duration":{},"model_loudness":{"DefaultLoudness":{"type":"float","value":-25},"LoudnessStandard":{"type":"std::uint32_t","value":0},"MaxLoudness":{"type":"float","value":-12},"MinLoudness":{"type":"float","value":-42}},"model_volume":{"MaxGain":{"type":"float","value":15},"MinGain":{"type":"float","value":-60}}},"Version":1},"Type":"1c19ca71-c24c-49cd-8dd5-2cc46018507a","Version":1},{"Guid":"cea63332-1adc-44a9-a6eb-5490f965859b","Name":"$$$/app/Presets/DefaultPresetName=(Default)","PresetData":{"ModeID":"sfx","Models":{"model_loudness":{"DefaultLoudness":{"type":"float","value":-21},"LoudnessStandard":{"type":"std::uint32_t","value":0},"MaxLoudness":{"type":"float","value":-12},"MinLoudness":{"type":"float","value":-42}},"model_pan":{},"model_soundeffects":{"ReverbPresets":{"type":"tree::any","value":{"$$$/app/Presets/EssentialSound/ReverbPreset/HeavyReverb=Heavy Reverb":{"type":"array::float","value":[0.13316600024700165,0.29929900169372559,1,0.95999997854232788,0.85000002384185791,0.5,0.51530599594116211,0.30000001192092896,0.5,0.5,0.5,0.25125628709793091,0.0625]},"$$$/app/Presets/EssentialSound/ReverbPreset/LightReverb=Light Reverb":{"type":"array::float","value":[0.095477402210235596,0.29929900169372559,0.090909101068973541,1,1,0.80000001192092896,0.22449000179767609,0.60000002384185791,0.5,0.69999998807907104,0.30000001192092896,0.25125628709793091,0.0625]},"$$$/app/Presets/EssentialSound/ReverbPreset/OutsideReverb=Outside Reverb":{"type":"array::float","value":[0.091708503663539886,0.043893899768590927,1,0.5,0.20000000298023224,0.80000001192092896,0.18367299437522888,1,0.5,0,0.80000001192092896,0.25125628709793091,0.0625]},"$$$/app/Presets/EssentialSound/ReverbPreset/RoomReverb=Room Reverb":{"type":"array::float","value":[0.057788901031017303,0.44944900274276733,0.49494898319244385,0.89999997615814209,0.10000000149011612,0.15000000596046448,0.081632703542709351,0.40000000596046448,0.5,0.80000001192092896,0.20000000298023224,0.25125628709793091,0.0625]}}}},"model_volume":{"MaxGain":{"type":"float","value":15},"MinGain":{"type":"float","value":-60}}},"Version":1},"Type":"1c19ca71-c24c-49cd-8dd5-2cc46018507a","Version":1}]</property>
    </properties>
  </session>

  <files>
    <file absolutePath="/Users/sophie/Desktop/clip_audio/file/Imported Files/Laurent Garnier - Crispy Bacon.mp3" id="0" importerPrivateSettings="BitsPerSecond:0:128000;CompressionQuality:0:4;CompressionType:0:0;Encoder:0:1181239072;" mediaHandler="AmioMP3" relativePath="Imported Files/Laurent Garnier - Crispy Bacon.mp3"/>
  </files>

  <audioDevice inputID="22222222-2222-2222-2222-22222222" outputID="11111111-1111-1111-1111-11111111">
    <inputPort id="1" name="Default Stereo Input"/>
    <inputPort id="2" name="[01M] System Default - Microfono MacBook Pro: 1 "/>
    <inputPort id="3" name="[01S] System Default - Microfono MacBook Pro: 1 "/>
    <outputPort id="1" name="Default Output"/>
    <outputPort id="2" name="[01M] System Default - Altoparlanti MacBook Pro: 1"/>
    <outputPort id="3" name="[02M] System Default - Altoparlanti MacBook Pro: 2"/>
    <outputPort id="4" name="Default Stereo Output"/>
    <outputPort id="5" name="[01S] System Default - Altoparlanti MacBook Pro: 1"/>
    <outputPort id="6" name="Default Surround Output"/>
  </audioDevice>

</sesx>
